  0
SECTION
  2
HEADER
  9
$ACADVER
  1
AC1009
  9
$FILLMODE
 70
 0
  9
$SPLFRAME
 70
 1
  9
$EXTMIN
 10
0
 20
0
 30
0.0
  9
$EXTMAX
 10
1058.33
 20
1058.33
 30
0.0
  0
ENDSEC
  0
SECTION
  2
TABLES
  0
TABLE
  2
LAYER
 70
1
  0
LAYER
  2
0
 70
     0
 62
     7
  6
CONTINUOUS
  0
ENDTAB
  0
ENDSEC
  0
SECTION
  2
ENTITIES
  0
LINE
  8
0
 62
     0
 10
0.0950846
 20
114.558
 30
0.0
 11
371.57
 21
114.558
 31
0.0
  0
LINE
  8
0
 62
     0
 10
371.57
 20
114.558
 30
0.0
 11
371.57
 21
0.257693
 31
0.0
  0
LINE
  8
0
 62
     0
 10
371.57
 20
0.257693
 30
0.0
 11
0.0950846
 21
0.257693
 31
0.0
  0
LINE
  8
0
 62
     0
 10
0.0950846
 20
0.257693
 30
0.0
 11
0.0950846
 21
114.558
 31
0.0
  0
LINE
  8
0
 62
     0
 10
135.97
 20
16.7831
 30
0.0
 11
135.97
 21
12.0826
 31
0.0
  0
LINE
  8
0
 62
     0
 10
135.97
 20
12.0826
 30
0.0
 11
89.1949
 21
12.0826
 31
0.0
  0
LINE
  8
0
 62
     0
 10
89.1949
 20
12.0826
 30
0.0
 11
89.1949
 21
15.3128
 31
0.0
  0
LINE
  8
0
 62
     0
 10
89.1949
 20
15.3128
 30
0.0
 11
87.4695
 21
15.3128
 31
0.0
  0
LINE
  8
0
 62
     0
 10
87.4695
 20
15.3128
 30
0.0
 11
87.4695
 21
16.2333
 31
0.0
  0
LINE
  8
0
 62
     0
 10
87.4695
 20
16.2333
 30
0.0
 11
84.1692
 21
16.2333
 31
0.0
  0
LINE
  8
0
 62
     0
 10
84.1692
 20
16.2333
 30
0.0
 11
84.1692
 21
15.3128
 31
0.0
  0
LINE
  8
0
 62
     0
 10
84.1692
 20
15.3128
 30
0.0
 11
82.4438
 21
15.3128
 31
0.0
  0
LINE
  8
0
 62
     0
 10
82.4438
 20
15.3128
 30
0.0
 11
82.4438
 21
12.0826
 31
0.0
  0
LINE
  8
0
 62
     0
 10
82.4438
 20
12.0826
 30
0.0
 11
81.6197
 21
12.0826
 31
0.0
  0
LINE
  8
0
 62
     0
 10
81.6197
 20
12.0826
 30
0.0
 11
81.6197
 21
9.28384
 31
0.0
  0
LINE
  8
0
 62
     0
 10
81.6197
 20
9.28384
 30
0.0
 11
82.4438
 21
9.28384
 31
0.0
  0
LINE
  8
0
 62
     0
 10
82.4438
 20
9.28384
 30
0.0
 11
82.4438
 21
3.01377
 31
0.0
  0
LINE
  8
0
 62
     0
 10
82.4438
 20
3.01377
 30
0.0
 11
84.1692
 21
3.01377
 31
0.0
  0
LINE
  8
0
 62
     0
 10
84.1692
 20
3.01377
 30
0.0
 11
84.1692
 21
2.03261
 31
0.0
  0
LINE
  8
0
 62
     0
 10
84.1692
 20
2.03261
 30
0.0
 11
87.4695
 21
2.03261
 31
0.0
  0
LINE
  8
0
 62
     0
 10
87.4695
 20
2.03261
 30
0.0
 11
87.4695
 21
3.01377
 31
0.0
  0
LINE
  8
0
 62
     0
 10
87.4695
 20
3.01377
 30
0.0
 11
89.1949
 21
3.01377
 31
0.0
  0
LINE
  8
0
 62
     0
 10
89.1949
 20
3.01377
 30
0.0
 11
89.1949
 21
7.48273
 31
0.0
  0
LINE
  8
0
 62
     0
 10
89.1949
 20
7.48273
 30
0.0
 11
135.97
 21
7.48273
 31
0.0
  0
LINE
  8
0
 62
     0
 10
135.97
 20
7.48273
 30
0.0
 11
135.97
 21
2.78364
 31
0.0
  0
LINE
  8
0
 62
     0
 10
135.97
 20
2.78364
 30
0.0
 11
149.969
 21
2.78364
 31
0.0
  0
LINE
  8
0
 62
     0
 10
149.969
 20
2.78364
 30
0.0
 11
149.969
 21
7.48273
 31
0.0
  0
LINE
  8
0
 62
     0
 10
149.969
 20
7.48273
 30
0.0
 11
196.744
 21
7.48273
 31
0.0
  0
LINE
  8
0
 62
     0
 10
196.744
 20
7.48273
 30
0.0
 11
196.744
 21
3.01377
 31
0.0
  0
LINE
  8
0
 62
     0
 10
196.744
 20
3.01377
 30
0.0
 11
198.469
 21
3.01377
 31
0.0
  0
LINE
  8
0
 62
     0
 10
198.469
 20
3.01377
 30
0.0
 11
198.469
 21
2.03261
 31
0.0
  0
LINE
  8
0
 62
     0
 10
198.469
 20
2.03261
 30
0.0
 11
201.769
 21
2.03261
 31
0.0
  0
LINE
  8
0
 62
     0
 10
201.769
 20
2.03261
 30
0.0
 11
201.769
 21
3.01377
 31
0.0
  0
LINE
  8
0
 62
     0
 10
201.769
 20
3.01377
 30
0.0
 11
203.495
 21
3.01377
 31
0.0
  0
LINE
  8
0
 62
     0
 10
203.495
 20
3.01377
 30
0.0
 11
203.495
 21
9.28384
 31
0.0
  0
LINE
  8
0
 62
     0
 10
203.495
 20
9.28384
 30
0.0
 11
204.319
 21
9.28384
 31
0.0
  0
LINE
  8
0
 62
     0
 10
204.319
 20
9.28384
 30
0.0
 11
204.319
 21
12.0826
 31
0.0
  0
LINE
  8
0
 62
     0
 10
204.319
 20
12.0826
 30
0.0
 11
203.495
 21
12.0826
 31
0.0
  0
LINE
  8
0
 62
     0
 10
203.495
 20
12.0826
 30
0.0
 11
203.495
 21
15.3128
 31
0.0
  0
LINE
  8
0
 62
     0
 10
203.495
 20
15.3128
 30
0.0
 11
201.769
 21
15.3128
 31
0.0
  0
LINE
  8
0
 62
     0
 10
201.769
 20
15.3128
 30
0.0
 11
201.769
 21
16.2333
 31
0.0
  0
LINE
  8
0
 62
     0
 10
201.769
 20
16.2333
 30
0.0
 11
198.469
 21
16.2333
 31
0.0
  0
LINE
  8
0
 62
     0
 10
198.469
 20
16.2333
 30
0.0
 11
198.469
 21
15.3128
 31
0.0
  0
LINE
  8
0
 62
     0
 10
198.469
 20
15.3128
 30
0.0
 11
196.744
 21
15.3128
 31
0.0
  0
LINE
  8
0
 62
     0
 10
196.744
 20
15.3128
 30
0.0
 11
196.744
 21
12.0826
 31
0.0
  0
LINE
  8
0
 62
     0
 10
196.744
 20
12.0826
 30
0.0
 11
149.969
 21
12.0826
 31
0.0
  0
LINE
  8
0
 62
     0
 10
149.969
 20
12.0826
 30
0.0
 11
149.969
 21
16.7831
 31
0.0
  0
LINE
  8
0
 62
     0
 10
149.969
 20
16.7831
 30
0.0
 11
135.97
 21
16.7831
 31
0.0
  0
LINE
  8
0
 62
     0
 10
59.7697
 20
16.7831
 30
0.0
 11
73.769
 21
16.7831
 31
0.0
  0
LINE
  8
0
 62
     0
 10
73.769
 20
16.7831
 30
0.0
 11
73.769
 21
2.78364
 31
0.0
  0
LINE
  8
0
 62
     0
 10
73.769
 20
2.78364
 30
0.0
 11
59.7697
 21
2.78364
 31
0.0
  0
LINE
  8
0
 62
     0
 10
59.7697
 20
2.78364
 30
0.0
 11
59.7697
 21
16.7831
 31
0.0
  0
LINE
  8
0
 62
     0
 10
326.47
 20
26.3081
 30
0.0
 11
326.47
 21
21.6076
 31
0.0
  0
LINE
  8
0
 62
     0
 10
326.47
 20
21.6076
 30
0.0
 11
324.944
 21
21.6076
 31
0.0
  0
LINE
  8
0
 62
     0
 10
324.944
 20
21.6076
 30
0.0
 11
324.944
 21
24.8378
 31
0.0
  0
LINE
  8
0
 62
     0
 10
324.944
 20
24.8378
 30
0.0
 11
323.219
 21
24.8378
 31
0.0
  0
LINE
  8
0
 62
     0
 10
323.219
 20
24.8378
 30
0.0
 11
323.219
 21
25.7583
 31
0.0
  0
LINE
  8
0
 62
     0
 10
323.219
 20
25.7583
 30
0.0
 11
319.92
 21
25.7583
 31
0.0
  0
LINE
  8
0
 62
     0
 10
319.92
 20
25.7583
 30
0.0
 11
319.92
 21
24.8378
 31
0.0
  0
LINE
  8
0
 62
     0
 10
319.92
 20
24.8378
 30
0.0
 11
318.195
 21
24.8378
 31
0.0
  0
LINE
  8
0
 62
     0
 10
318.195
 20
24.8378
 30
0.0
 11
318.195
 21
21.6076
 31
0.0
  0
LINE
  8
0
 62
     0
 10
318.195
 20
21.6076
 30
0.0
 11
317.369
 21
21.6076
 31
0.0
  0
LINE
  8
0
 62
     0
 10
317.369
 20
21.6076
 30
0.0
 11
317.369
 21
18.8088
 31
0.0
  0
LINE
  8
0
 62
     0
 10
317.369
 20
18.8088
 30
0.0
 11
318.195
 21
18.8088
 31
0.0
  0
LINE
  8
0
 62
     0
 10
318.195
 20
18.8088
 30
0.0
 11
318.195
 21
12.5388
 31
0.0
  0
LINE
  8
0
 62
     0
 10
318.195
 20
12.5388
 30
0.0
 11
319.92
 21
12.5388
 31
0.0
  0
LINE
  8
0
 62
     0
 10
319.92
 20
12.5388
 30
0.0
 11
319.92
 21
11.5576
 31
0.0
  0
LINE
  8
0
 62
     0
 10
319.92
 20
11.5576
 30
0.0
 11
323.219
 21
11.5576
 31
0.0
  0
LINE
  8
0
 62
     0
 10
323.219
 20
11.5576
 30
0.0
 11
323.219
 21
12.5388
 31
0.0
  0
LINE
  8
0
 62
     0
 10
323.219
 20
12.5388
 30
0.0
 11
324.944
 21
12.5388
 31
0.0
  0
LINE
  8
0
 62
     0
 10
324.944
 20
12.5388
 30
0.0
 11
324.944
 21
17.0077
 31
0.0
  0
LINE
  8
0
 62
     0
 10
324.944
 20
17.0077
 30
0.0
 11
326.47
 21
17.0077
 31
0.0
  0
LINE
  8
0
 62
     0
 10
326.47
 20
17.0077
 30
0.0
 11
326.47
 21
12.3086
 31
0.0
  0
LINE
  8
0
 62
     0
 10
326.47
 20
12.3086
 30
0.0
 11
340.469
 21
12.3086
 31
0.0
  0
LINE
  8
0
 62
     0
 10
340.469
 20
12.3086
 30
0.0
 11
340.469
 21
17.0077
 31
0.0
  0
LINE
  8
0
 62
     0
 10
340.469
 20
17.0077
 30
0.0
 11
341.995
 21
17.0077
 31
0.0
  0
LINE
  8
0
 62
     0
 10
341.995
 20
17.0077
 30
0.0
 11
341.995
 21
12.5388
 31
0.0
  0
LINE
  8
0
 62
     0
 10
341.995
 20
12.5388
 30
0.0
 11
343.72
 21
12.5388
 31
0.0
  0
LINE
  8
0
 62
     0
 10
343.72
 20
12.5388
 30
0.0
 11
343.72
 21
11.5576
 31
0.0
  0
LINE
  8
0
 62
     0
 10
343.72
 20
11.5576
 30
0.0
 11
347.019
 21
11.5576
 31
0.0
  0
LINE
  8
0
 62
     0
 10
347.019
 20
11.5576
 30
0.0
 11
347.019
 21
12.5388
 31
0.0
  0
LINE
  8
0
 62
     0
 10
347.019
 20
12.5388
 30
0.0
 11
348.744
 21
12.5388
 31
0.0
  0
LINE
  8
0
 62
     0
 10
348.744
 20
12.5388
 30
0.0
 11
348.744
 21
18.8088
 31
0.0
  0
LINE
  8
0
 62
     0
 10
348.744
 20
18.8088
 30
0.0
 11
349.57
 21
18.8088
 31
0.0
  0
LINE
  8
0
 62
     0
 10
349.57
 20
18.8088
 30
0.0
 11
349.57
 21
21.6076
 31
0.0
  0
LINE
  8
0
 62
     0
 10
349.57
 20
21.6076
 30
0.0
 11
348.744
 21
21.6076
 31
0.0
  0
LINE
  8
0
 62
     0
 10
348.744
 20
21.6076
 30
0.0
 11
348.744
 21
24.8378
 31
0.0
  0
LINE
  8
0
 62
     0
 10
348.744
 20
24.8378
 30
0.0
 11
347.019
 21
24.8378
 31
0.0
  0
LINE
  8
0
 62
     0
 10
347.019
 20
24.8378
 30
0.0
 11
347.019
 21
25.7583
 31
0.0
  0
LINE
  8
0
 62
     0
 10
347.019
 20
25.7583
 30
0.0
 11
343.72
 21
25.7583
 31
0.0
  0
LINE
  8
0
 62
     0
 10
343.72
 20
25.7583
 30
0.0
 11
343.72
 21
24.8378
 31
0.0
  0
LINE
  8
0
 62
     0
 10
343.72
 20
24.8378
 30
0.0
 11
341.995
 21
24.8378
 31
0.0
  0
LINE
  8
0
 62
     0
 10
341.995
 20
24.8378
 30
0.0
 11
341.995
 21
21.6076
 31
0.0
  0
LINE
  8
0
 62
     0
 10
341.995
 20
21.6076
 30
0.0
 11
340.469
 21
21.6076
 31
0.0
  0
LINE
  8
0
 62
     0
 10
340.469
 20
21.6076
 30
0.0
 11
340.469
 21
26.3081
 31
0.0
  0
LINE
  8
0
 62
     0
 10
340.469
 20
26.3081
 30
0.0
 11
326.47
 21
26.3081
 31
0.0
  0
LINE
  8
0
 62
     0
 10
12.1447
 20
35.833
 30
0.0
 11
12.1447
 21
31.1326
 31
0.0
  0
LINE
  8
0
 62
     0
 10
12.1447
 20
31.1326
 30
0.0
 11
10.6192
 21
31.1326
 31
0.0
  0
LINE
  8
0
 62
     0
 10
10.6192
 20
31.1326
 30
0.0
 11
10.6192
 21
34.3628
 31
0.0
  0
LINE
  8
0
 62
     0
 10
10.6192
 20
34.3628
 30
0.0
 11
8.89385
 21
34.3628
 31
0.0
  0
LINE
  8
0
 62
     0
 10
8.89385
 20
34.3628
 30
0.0
 11
8.89385
 21
35.2834
 31
0.0
  0
LINE
  8
0
 62
     0
 10
8.89385
 20
35.2834
 30
0.0
 11
5.59484
 21
35.2834
 31
0.0
  0
LINE
  8
0
 62
     0
 10
5.59484
 20
35.2834
 30
0.0
 11
5.59484
 21
34.3628
 31
0.0
  0
LINE
  8
0
 62
     0
 10
5.59484
 20
34.3628
 30
0.0
 11
3.86955
 21
34.3628
 31
0.0
  0
LINE
  8
0
 62
     0
 10
3.86955
 20
34.3628
 30
0.0
 11
3.86955
 21
31.1326
 31
0.0
  0
LINE
  8
0
 62
     0
 10
3.86955
 20
31.1326
 30
0.0
 11
3.04409
 21
31.1326
 31
0.0
  0
LINE
  8
0
 62
     0
 10
3.04409
 20
31.1326
 30
0.0
 11
3.04409
 21
28.3338
 31
0.0
  0
LINE
  8
0
 62
     0
 10
3.04409
 20
28.3338
 30
0.0
 11
3.86955
 21
28.3338
 31
0.0
  0
LINE
  8
0
 62
     0
 10
3.86955
 20
28.3338
 30
0.0
 11
3.86955
 21
22.0638
 31
0.0
  0
LINE
  8
0
 62
     0
 10
3.86955
 20
22.0638
 30
0.0
 11
5.59484
 21
22.0638
 31
0.0
  0
LINE
  8
0
 62
     0
 10
5.59484
 20
22.0638
 30
0.0
 11
5.59484
 21
21.0826
 31
0.0
  0
LINE
  8
0
 62
     0
 10
5.59484
 20
21.0826
 30
0.0
 11
8.89385
 21
21.0826
 31
0.0
  0
LINE
  8
0
 62
     0
 10
8.89385
 20
21.0826
 30
0.0
 11
8.89385
 21
22.0638
 31
0.0
  0
LINE
  8
0
 62
     0
 10
8.89385
 20
22.0638
 30
0.0
 11
10.6192
 21
22.0638
 31
0.0
  0
LINE
  8
0
 62
     0
 10
10.6192
 20
22.0638
 30
0.0
 11
10.6192
 21
26.5327
 31
0.0
  0
LINE
  8
0
 62
     0
 10
10.6192
 20
26.5327
 30
0.0
 11
12.1447
 21
26.5327
 31
0.0
  0
LINE
  8
0
 62
     0
 10
12.1447
 20
26.5327
 30
0.0
 11
12.1447
 21
21.8336
 31
0.0
  0
LINE
  8
0
 62
     0
 10
12.1447
 20
21.8336
 30
0.0
 11
26.1441
 21
21.8336
 31
0.0
  0
LINE
  8
0
 62
     0
 10
26.1441
 20
21.8336
 30
0.0
 11
26.1441
 21
26.5327
 31
0.0
  0
LINE
  8
0
 62
     0
 10
26.1441
 20
26.5327
 30
0.0
 11
27.6696
 21
26.5327
 31
0.0
  0
LINE
  8
0
 62
     0
 10
27.6696
 20
26.5327
 30
0.0
 11
27.6696
 21
22.0638
 31
0.0
  0
LINE
  8
0
 62
     0
 10
27.6696
 20
22.0638
 30
0.0
 11
29.3949
 21
22.0638
 31
0.0
  0
LINE
  8
0
 62
     0
 10
29.3949
 20
22.0638
 30
0.0
 11
29.3949
 21
21.0826
 31
0.0
  0
LINE
  8
0
 62
     0
 10
29.3949
 20
21.0826
 30
0.0
 11
32.694
 21
21.0826
 31
0.0
  0
LINE
  8
0
 62
     0
 10
32.694
 20
21.0826
 30
0.0
 11
32.694
 21
22.0638
 31
0.0
  0
LINE
  8
0
 62
     0
 10
32.694
 20
22.0638
 30
0.0
 11
34.4193
 21
22.0638
 31
0.0
  0
LINE
  8
0
 62
     0
 10
34.4193
 20
22.0638
 30
0.0
 11
34.4193
 21
28.3338
 31
0.0
  0
LINE
  8
0
 62
     0
 10
34.4193
 20
28.3338
 30
0.0
 11
35.2447
 21
28.3338
 31
0.0
  0
LINE
  8
0
 62
     0
 10
35.2447
 20
28.3338
 30
0.0
 11
35.2447
 21
31.1326
 31
0.0
  0
LINE
  8
0
 62
     0
 10
35.2447
 20
31.1326
 30
0.0
 11
34.4193
 21
31.1326
 31
0.0
  0
LINE
  8
0
 62
     0
 10
34.4193
 20
31.1326
 30
0.0
 11
34.4193
 21
34.3628
 31
0.0
  0
LINE
  8
0
 62
     0
 10
34.4193
 20
34.3628
 30
0.0
 11
32.694
 21
34.3628
 31
0.0
  0
LINE
  8
0
 62
     0
 10
32.694
 20
34.3628
 30
0.0
 11
32.694
 21
35.2834
 31
0.0
  0
LINE
  8
0
 62
     0
 10
32.694
 20
35.2834
 30
0.0
 11
29.3949
 21
35.2834
 31
0.0
  0
LINE
  8
0
 62
     0
 10
29.3949
 20
35.2834
 30
0.0
 11
29.3949
 21
34.3628
 31
0.0
  0
LINE
  8
0
 62
     0
 10
29.3949
 20
34.3628
 30
0.0
 11
27.6696
 21
34.3628
 31
0.0
  0
LINE
  8
0
 62
     0
 10
27.6696
 20
34.3628
 30
0.0
 11
27.6696
 21
31.1326
 31
0.0
  0
LINE
  8
0
 62
     0
 10
27.6696
 20
31.1326
 30
0.0
 11
26.1441
 21
31.1326
 31
0.0
  0
LINE
  8
0
 62
     0
 10
26.1441
 20
31.1326
 30
0.0
 11
26.1441
 21
35.833
 31
0.0
  0
LINE
  8
0
 62
     0
 10
26.1441
 20
35.833
 30
0.0
 11
12.1447
 21
35.833
 31
0.0
  0
LINE
  8
0
 62
     0
 10
259.795
 20
35.833
 30
0.0
 11
259.795
 21
31.1326
 31
0.0
  0
LINE
  8
0
 62
     0
 10
259.795
 20
31.1326
 30
0.0
 11
258.269
 21
31.1326
 31
0.0
  0
LINE
  8
0
 62
     0
 10
258.269
 20
31.1326
 30
0.0
 11
258.269
 21
34.3628
 31
0.0
  0
LINE
  8
0
 62
     0
 10
258.269
 20
34.3628
 30
0.0
 11
256.544
 21
34.3628
 31
0.0
  0
LINE
  8
0
 62
     0
 10
256.544
 20
34.3628
 30
0.0
 11
256.544
 21
35.2834
 31
0.0
  0
LINE
  8
0
 62
     0
 10
256.544
 20
35.2834
 30
0.0
 11
253.243
 21
35.2834
 31
0.0
  0
LINE
  8
0
 62
     0
 10
253.243
 20
35.2834
 30
0.0
 11
253.243
 21
34.3628
 31
0.0
  0
LINE
  8
0
 62
     0
 10
253.243
 20
34.3628
 30
0.0
 11
251.52
 21
34.3628
 31
0.0
  0
LINE
  8
0
 62
     0
 10
251.52
 20
34.3628
 30
0.0
 11
251.52
 21
31.1326
 31
0.0
  0
LINE
  8
0
 62
     0
 10
251.52
 20
31.1326
 30
0.0
 11
250.694
 21
31.1326
 31
0.0
  0
LINE
  8
0
 62
     0
 10
250.694
 20
31.1326
 30
0.0
 11
250.694
 21
28.3338
 31
0.0
  0
LINE
  8
0
 62
     0
 10
250.694
 20
28.3338
 30
0.0
 11
251.52
 21
28.3338
 31
0.0
  0
LINE
  8
0
 62
     0
 10
251.52
 20
28.3338
 30
0.0
 11
251.52
 21
22.0638
 31
0.0
  0
LINE
  8
0
 62
     0
 10
251.52
 20
22.0638
 30
0.0
 11
253.243
 21
22.0638
 31
0.0
  0
LINE
  8
0
 62
     0
 10
253.243
 20
22.0638
 30
0.0
 11
253.243
 21
21.0826
 31
0.0
  0
LINE
  8
0
 62
     0
 10
253.243
 20
21.0826
 30
0.0
 11
256.544
 21
21.0826
 31
0.0
  0
LINE
  8
0
 62
     0
 10
256.544
 20
21.0826
 30
0.0
 11
256.544
 21
22.0638
 31
0.0
  0
LINE
  8
0
 62
     0
 10
256.544
 20
22.0638
 30
0.0
 11
258.269
 21
22.0638
 31
0.0
  0
LINE
  8
0
 62
     0
 10
258.269
 20
22.0638
 30
0.0
 11
258.269
 21
26.5327
 31
0.0
  0
LINE
  8
0
 62
     0
 10
258.269
 20
26.5327
 30
0.0
 11
259.795
 21
26.5327
 31
0.0
  0
LINE
  8
0
 62
     0
 10
259.795
 20
26.5327
 30
0.0
 11
259.795
 21
21.8336
 31
0.0
  0
LINE
  8
0
 62
     0
 10
259.795
 20
21.8336
 30
0.0
 11
273.794
 21
21.8336
 31
0.0
  0
LINE
  8
0
 62
     0
 10
273.794
 20
21.8336
 30
0.0
 11
273.794
 21
26.5327
 31
0.0
  0
LINE
  8
0
 62
     0
 10
273.794
 20
26.5327
 30
0.0
 11
275.32
 21
26.5327
 31
0.0
  0
LINE
  8
0
 62
     0
 10
275.32
 20
26.5327
 30
0.0
 11
275.32
 21
22.0638
 31
0.0
  0
LINE
  8
0
 62
     0
 10
275.32
 20
22.0638
 30
0.0
 11
277.045
 21
22.0638
 31
0.0
  0
LINE
  8
0
 62
     0
 10
277.045
 20
22.0638
 30
0.0
 11
277.045
 21
21.0826
 31
0.0
  0
LINE
  8
0
 62
     0
 10
277.045
 20
21.0826
 30
0.0
 11
280.344
 21
21.0826
 31
0.0
  0
LINE
  8
0
 62
     0
 10
280.344
 20
21.0826
 30
0.0
 11
280.344
 21
22.0638
 31
0.0
  0
LINE
  8
0
 62
     0
 10
280.344
 20
22.0638
 30
0.0
 11
282.069
 21
22.0638
 31
0.0
  0
LINE
  8
0
 62
     0
 10
282.069
 20
22.0638
 30
0.0
 11
282.069
 21
28.3338
 31
0.0
  0
LINE
  8
0
 62
     0
 10
282.069
 20
28.3338
 30
0.0
 11
282.895
 21
28.3338
 31
0.0
  0
LINE
  8
0
 62
     0
 10
282.895
 20
28.3338
 30
0.0
 11
282.895
 21
31.1326
 31
0.0
  0
LINE
  8
0
 62
     0
 10
282.895
 20
31.1326
 30
0.0
 11
282.069
 21
31.1326
 31
0.0
  0
LINE
  8
0
 62
     0
 10
282.069
 20
31.1326
 30
0.0
 11
282.069
 21
34.3628
 31
0.0
  0
LINE
  8
0
 62
     0
 10
282.069
 20
34.3628
 30
0.0
 11
280.344
 21
34.3628
 31
0.0
  0
LINE
  8
0
 62
     0
 10
280.344
 20
34.3628
 30
0.0
 11
280.344
 21
35.2834
 31
0.0
  0
LINE
  8
0
 62
     0
 10
280.344
 20
35.2834
 30
0.0
 11
277.045
 21
35.2834
 31
0.0
  0
LINE
  8
0
 62
     0
 10
277.045
 20
35.2834
 30
0.0
 11
277.045
 21
34.3628
 31
0.0
  0
LINE
  8
0
 62
     0
 10
277.045
 20
34.3628
 30
0.0
 11
275.32
 21
34.3628
 31
0.0
  0
LINE
  8
0
 62
     0
 10
275.32
 20
34.3628
 30
0.0
 11
275.32
 21
31.1326
 31
0.0
  0
LINE
  8
0
 62
     0
 10
275.32
 20
31.1326
 30
0.0
 11
273.794
 21
31.1326
 31
0.0
  0
LINE
  8
0
 62
     0
 10
273.794
 20
31.1326
 30
0.0
 11
273.794
 21
35.833
 31
0.0
  0
LINE
  8
0
 62
     0
 10
273.794
 20
35.833
 30
0.0
 11
259.795
 21
35.833
 31
0.0
  0
LINE
  8
0
 62
     0
 10
40.7197
 20
35.833
 30
0.0
 11
54.719
 21
35.833
 31
0.0
  0
LINE
  8
0
 62
     0
 10
54.719
 20
35.833
 30
0.0
 11
54.719
 21
21.8336
 31
0.0
  0
LINE
  8
0
 62
     0
 10
54.719
 20
21.8336
 30
0.0
 11
40.7197
 21
21.8336
 31
0.0
  0
LINE
  8
0
 62
     0
 10
40.7197
 20
21.8336
 30
0.0
 11
40.7197
 21
35.833
 31
0.0
  0
LINE
  8
0
 62
     0
 10
59.7697
 20
35.833
 30
0.0
 11
73.769
 21
35.833
 31
0.0
  0
LINE
  8
0
 62
     0
 10
73.769
 20
35.833
 30
0.0
 11
73.769
 21
21.8336
 31
0.0
  0
LINE
  8
0
 62
     0
 10
73.769
 20
21.8336
 30
0.0
 11
59.7697
 21
21.8336
 31
0.0
  0
LINE
  8
0
 62
     0
 10
59.7697
 20
21.8336
 30
0.0
 11
59.7697
 21
35.833
 31
0.0
  0
LINE
  8
0
 62
     0
 10
78.8197
 20
35.833
 30
0.0
 11
92.819
 21
35.833
 31
0.0
  0
LINE
  8
0
 62
     0
 10
92.819
 20
35.833
 30
0.0
 11
92.819
 21
21.8336
 31
0.0
  0
LINE
  8
0
 62
     0
 10
92.819
 20
21.8336
 30
0.0
 11
78.8197
 21
21.8336
 31
0.0
  0
LINE
  8
0
 62
     0
 10
78.8197
 20
21.8336
 30
0.0
 11
78.8197
 21
35.833
 31
0.0
  0
LINE
  8
0
 62
     0
 10
97.8683
 20
35.833
 30
0.0
 11
111.869
 21
35.833
 31
0.0
  0
LINE
  8
0
 62
     0
 10
111.869
 20
35.833
 30
0.0
 11
111.869
 21
21.8336
 31
0.0
  0
LINE
  8
0
 62
     0
 10
111.869
 20
21.8336
 30
0.0
 11
97.8683
 21
21.8336
 31
0.0
  0
LINE
  8
0
 62
     0
 10
97.8683
 20
21.8336
 30
0.0
 11
97.8683
 21
35.833
 31
0.0
  0
LINE
  8
0
 62
     0
 10
116.918
 20
35.833
 30
0.0
 11
130.919
 21
35.833
 31
0.0
  0
LINE
  8
0
 62
     0
 10
130.919
 20
35.833
 30
0.0
 11
130.919
 21
21.8336
 31
0.0
  0
LINE
  8
0
 62
     0
 10
130.919
 20
21.8336
 30
0.0
 11
116.918
 21
21.8336
 31
0.0
  0
LINE
  8
0
 62
     0
 10
116.918
 20
21.8336
 30
0.0
 11
116.918
 21
35.833
 31
0.0
  0
LINE
  8
0
 62
     0
 10
135.97
 20
35.833
 30
0.0
 11
149.969
 21
35.833
 31
0.0
  0
LINE
  8
0
 62
     0
 10
149.969
 20
35.833
 30
0.0
 11
149.969
 21
21.8336
 31
0.0
  0
LINE
  8
0
 62
     0
 10
149.969
 20
21.8336
 30
0.0
 11
135.97
 21
21.8336
 31
0.0
  0
LINE
  8
0
 62
     0
 10
135.97
 20
21.8336
 30
0.0
 11
135.97
 21
35.833
 31
0.0
  0
LINE
  8
0
 62
     0
 10
155.02
 20
35.833
 30
0.0
 11
169.019
 21
35.833
 31
0.0
  0
LINE
  8
0
 62
     0
 10
169.019
 20
35.833
 30
0.0
 11
169.019
 21
21.8336
 31
0.0
  0
LINE
  8
0
 62
     0
 10
169.019
 20
21.8336
 30
0.0
 11
155.02
 21
21.8336
 31
0.0
  0
LINE
  8
0
 62
     0
 10
155.02
 20
21.8336
 30
0.0
 11
155.02
 21
35.833
 31
0.0
  0
LINE
  8
0
 62
     0
 10
174.07
 20
35.833
 30
0.0
 11
188.069
 21
35.833
 31
0.0
  0
LINE
  8
0
 62
     0
 10
188.069
 20
35.833
 30
0.0
 11
188.069
 21
21.8336
 31
0.0
  0
LINE
  8
0
 62
     0
 10
188.069
 20
21.8336
 30
0.0
 11
174.07
 21
21.8336
 31
0.0
  0
LINE
  8
0
 62
     0
 10
174.07
 20
21.8336
 30
0.0
 11
174.07
 21
35.833
 31
0.0
  0
LINE
  8
0
 62
     0
 10
193.12
 20
35.833
 30
0.0
 11
207.119
 21
35.833
 31
0.0
  0
LINE
  8
0
 62
     0
 10
207.119
 20
35.833
 30
0.0
 11
207.119
 21
21.8336
 31
0.0
  0
LINE
  8
0
 62
     0
 10
207.119
 20
21.8336
 30
0.0
 11
193.12
 21
21.8336
 31
0.0
  0
LINE
  8
0
 62
     0
 10
193.12
 20
21.8336
 30
0.0
 11
193.12
 21
35.833
 31
0.0
  0
LINE
  8
0
 62
     0
 10
212.17
 20
35.833
 30
0.0
 11
226.169
 21
35.833
 31
0.0
  0
LINE
  8
0
 62
     0
 10
226.169
 20
35.833
 30
0.0
 11
226.169
 21
21.8336
 31
0.0
  0
LINE
  8
0
 62
     0
 10
226.169
 20
21.8336
 30
0.0
 11
212.17
 21
21.8336
 31
0.0
  0
LINE
  8
0
 62
     0
 10
212.17
 20
21.8336
 30
0.0
 11
212.17
 21
35.833
 31
0.0
  0
LINE
  8
0
 62
     0
 10
231.22
 20
35.833
 30
0.0
 11
245.219
 21
35.833
 31
0.0
  0
LINE
  8
0
 62
     0
 10
245.219
 20
35.833
 30
0.0
 11
245.219
 21
21.8336
 31
0.0
  0
LINE
  8
0
 62
     0
 10
245.219
 20
21.8336
 30
0.0
 11
231.22
 21
21.8336
 31
0.0
  0
LINE
  8
0
 62
     0
 10
231.22
 20
21.8336
 30
0.0
 11
231.22
 21
35.833
 31
0.0
  0
LINE
  8
0
 62
     0
 10
307.42
 20
45.3581
 30
0.0
 11
307.42
 21
40.6576
 31
0.0
  0
LINE
  8
0
 62
     0
 10
307.42
 20
40.6576
 30
0.0
 11
305.894
 21
40.6576
 31
0.0
  0
LINE
  8
0
 62
     0
 10
305.894
 20
40.6576
 30
0.0
 11
305.894
 21
43.8877
 31
0.0
  0
LINE
  8
0
 62
     0
 10
305.894
 20
43.8877
 30
0.0
 11
304.169
 21
43.8877
 31
0.0
  0
LINE
  8
0
 62
     0
 10
304.169
 20
43.8877
 30
0.0
 11
304.169
 21
44.8084
 31
0.0
  0
LINE
  8
0
 62
     0
 10
304.169
 20
44.8084
 30
0.0
 11
300.87
 21
44.8084
 31
0.0
  0
LINE
  8
0
 62
     0
 10
300.87
 20
44.8084
 30
0.0
 11
300.87
 21
43.8877
 31
0.0
  0
LINE
  8
0
 62
     0
 10
300.87
 20
43.8877
 30
0.0
 11
299.145
 21
43.8877
 31
0.0
  0
LINE
  8
0
 62
     0
 10
299.145
 20
43.8877
 30
0.0
 11
299.145
 21
40.6576
 31
0.0
  0
LINE
  8
0
 62
     0
 10
299.145
 20
40.6576
 30
0.0
 11
298.319
 21
40.6576
 31
0.0
  0
LINE
  8
0
 62
     0
 10
298.319
 20
40.6576
 30
0.0
 11
298.319
 21
37.8587
 31
0.0
  0
LINE
  8
0
 62
     0
 10
298.319
 20
37.8587
 30
0.0
 11
299.145
 21
37.8587
 31
0.0
  0
LINE
  8
0
 62
     0
 10
299.145
 20
37.8587
 30
0.0
 11
299.145
 21
31.5888
 31
0.0
  0
LINE
  8
0
 62
     0
 10
299.145
 20
31.5888
 30
0.0
 11
300.87
 21
31.5888
 31
0.0
  0
LINE
  8
0
 62
     0
 10
300.87
 20
31.5888
 30
0.0
 11
300.87
 21
30.6076
 31
0.0
  0
LINE
  8
0
 62
     0
 10
300.87
 20
30.6076
 30
0.0
 11
304.169
 21
30.6076
 31
0.0
  0
LINE
  8
0
 62
     0
 10
304.169
 20
30.6076
 30
0.0
 11
304.169
 21
31.5888
 31
0.0
  0
LINE
  8
0
 62
     0
 10
304.169
 20
31.5888
 30
0.0
 11
305.894
 21
31.5888
 31
0.0
  0
LINE
  8
0
 62
     0
 10
305.894
 20
31.5888
 30
0.0
 11
305.894
 21
36.0578
 31
0.0
  0
LINE
  8
0
 62
     0
 10
305.894
 20
36.0578
 30
0.0
 11
307.42
 21
36.0578
 31
0.0
  0
LINE
  8
0
 62
     0
 10
307.42
 20
36.0578
 30
0.0
 11
307.42
 21
31.3586
 31
0.0
  0
LINE
  8
0
 62
     0
 10
307.42
 20
31.3586
 30
0.0
 11
321.419
 21
31.3586
 31
0.0
  0
LINE
  8
0
 62
     0
 10
321.419
 20
31.3586
 30
0.0
 11
321.419
 21
36.0578
 31
0.0
  0
LINE
  8
0
 62
     0
 10
321.419
 20
36.0578
 30
0.0
 11
322.945
 21
36.0578
 31
0.0
  0
LINE
  8
0
 62
     0
 10
322.945
 20
36.0578
 30
0.0
 11
322.945
 21
31.5888
 31
0.0
  0
LINE
  8
0
 62
     0
 10
322.945
 20
31.5888
 30
0.0
 11
324.67
 21
31.5888
 31
0.0
  0
LINE
  8
0
 62
     0
 10
324.67
 20
31.5888
 30
0.0
 11
324.67
 21
30.6076
 31
0.0
  0
LINE
  8
0
 62
     0
 10
324.67
 20
30.6076
 30
0.0
 11
327.969
 21
30.6076
 31
0.0
  0
LINE
  8
0
 62
     0
 10
327.969
 20
30.6076
 30
0.0
 11
327.969
 21
31.5888
 31
0.0
  0
LINE
  8
0
 62
     0
 10
327.969
 20
31.5888
 30
0.0
 11
329.694
 21
31.5888
 31
0.0
  0
LINE
  8
0
 62
     0
 10
329.694
 20
31.5888
 30
0.0
 11
329.694
 21
37.8587
 31
0.0
  0
LINE
  8
0
 62
     0
 10
329.694
 20
37.8587
 30
0.0
 11
330.52
 21
37.8587
 31
0.0
  0
LINE
  8
0
 62
     0
 10
330.52
 20
37.8587
 30
0.0
 11
330.52
 21
40.6576
 31
0.0
  0
LINE
  8
0
 62
     0
 10
330.52
 20
40.6576
 30
0.0
 11
329.694
 21
40.6576
 31
0.0
  0
LINE
  8
0
 62
     0
 10
329.694
 20
40.6576
 30
0.0
 11
329.694
 21
43.8877
 31
0.0
  0
LINE
  8
0
 62
     0
 10
329.694
 20
43.8877
 30
0.0
 11
327.969
 21
43.8877
 31
0.0
  0
LINE
  8
0
 62
     0
 10
327.969
 20
43.8877
 30
0.0
 11
327.969
 21
44.8084
 31
0.0
  0
LINE
  8
0
 62
     0
 10
327.969
 20
44.8084
 30
0.0
 11
324.67
 21
44.8084
 31
0.0
  0
LINE
  8
0
 62
     0
 10
324.67
 20
44.8084
 30
0.0
 11
324.67
 21
43.8877
 31
0.0
  0
LINE
  8
0
 62
     0
 10
324.67
 20
43.8877
 30
0.0
 11
322.945
 21
43.8877
 31
0.0
  0
LINE
  8
0
 62
     0
 10
322.945
 20
43.8877
 30
0.0
 11
322.945
 21
40.6576
 31
0.0
  0
LINE
  8
0
 62
     0
 10
322.945
 20
40.6576
 30
0.0
 11
321.419
 21
40.6576
 31
0.0
  0
LINE
  8
0
 62
     0
 10
321.419
 20
40.6576
 30
0.0
 11
321.419
 21
45.3581
 31
0.0
  0
LINE
  8
0
 62
     0
 10
321.419
 20
45.3581
 30
0.0
 11
307.42
 21
45.3581
 31
0.0
  0
LINE
  8
0
 62
     0
 10
345.52
 20
45.3581
 30
0.0
 11
345.52
 21
40.6576
 31
0.0
  0
LINE
  8
0
 62
     0
 10
345.52
 20
40.6576
 30
0.0
 11
343.994
 21
40.6576
 31
0.0
  0
LINE
  8
0
 62
     0
 10
343.994
 20
40.6576
 30
0.0
 11
343.994
 21
43.8877
 31
0.0
  0
LINE
  8
0
 62
     0
 10
343.994
 20
43.8877
 30
0.0
 11
342.269
 21
43.8877
 31
0.0
  0
LINE
  8
0
 62
     0
 10
342.269
 20
43.8877
 30
0.0
 11
342.269
 21
44.8084
 31
0.0
  0
LINE
  8
0
 62
     0
 10
342.269
 20
44.8084
 30
0.0
 11
338.97
 21
44.8084
 31
0.0
  0
LINE
  8
0
 62
     0
 10
338.97
 20
44.8084
 30
0.0
 11
338.97
 21
43.8877
 31
0.0
  0
LINE
  8
0
 62
     0
 10
338.97
 20
43.8877
 30
0.0
 11
337.245
 21
43.8877
 31
0.0
  0
LINE
  8
0
 62
     0
 10
337.245
 20
43.8877
 30
0.0
 11
337.245
 21
40.6576
 31
0.0
  0
LINE
  8
0
 62
     0
 10
337.245
 20
40.6576
 30
0.0
 11
336.419
 21
40.6576
 31
0.0
  0
LINE
  8
0
 62
     0
 10
336.419
 20
40.6576
 30
0.0
 11
336.419
 21
37.8587
 31
0.0
  0
LINE
  8
0
 62
     0
 10
336.419
 20
37.8587
 30
0.0
 11
337.245
 21
37.8587
 31
0.0
  0
LINE
  8
0
 62
     0
 10
337.245
 20
37.8587
 30
0.0
 11
337.245
 21
31.5888
 31
0.0
  0
LINE
  8
0
 62
     0
 10
337.245
 20
31.5888
 30
0.0
 11
338.97
 21
31.5888
 31
0.0
  0
LINE
  8
0
 62
     0
 10
338.97
 20
31.5888
 30
0.0
 11
338.97
 21
30.6076
 31
0.0
  0
LINE
  8
0
 62
     0
 10
338.97
 20
30.6076
 30
0.0
 11
342.269
 21
30.6076
 31
0.0
  0
LINE
  8
0
 62
     0
 10
342.269
 20
30.6076
 30
0.0
 11
342.269
 21
31.5888
 31
0.0
  0
LINE
  8
0
 62
     0
 10
342.269
 20
31.5888
 30
0.0
 11
343.994
 21
31.5888
 31
0.0
  0
LINE
  8
0
 62
     0
 10
343.994
 20
31.5888
 30
0.0
 11
343.994
 21
36.0578
 31
0.0
  0
LINE
  8
0
 62
     0
 10
343.994
 20
36.0578
 30
0.0
 11
345.52
 21
36.0578
 31
0.0
  0
LINE
  8
0
 62
     0
 10
345.52
 20
36.0578
 30
0.0
 11
345.52
 21
31.3586
 31
0.0
  0
LINE
  8
0
 62
     0
 10
345.52
 20
31.3586
 30
0.0
 11
359.519
 21
31.3586
 31
0.0
  0
LINE
  8
0
 62
     0
 10
359.519
 20
31.3586
 30
0.0
 11
359.519
 21
36.0578
 31
0.0
  0
LINE
  8
0
 62
     0
 10
359.519
 20
36.0578
 30
0.0
 11
361.043
 21
36.0578
 31
0.0
  0
LINE
  8
0
 62
     0
 10
361.043
 20
36.0578
 30
0.0
 11
361.043
 21
31.5888
 31
0.0
  0
LINE
  8
0
 62
     0
 10
361.043
 20
31.5888
 30
0.0
 11
362.768
 21
31.5888
 31
0.0
  0
LINE
  8
0
 62
     0
 10
362.768
 20
31.5888
 30
0.0
 11
362.768
 21
30.6076
 31
0.0
  0
LINE
  8
0
 62
     0
 10
362.768
 20
30.6076
 30
0.0
 11
366.07
 21
30.6076
 31
0.0
  0
LINE
  8
0
 62
     0
 10
366.07
 20
30.6076
 30
0.0
 11
366.07
 21
31.5888
 31
0.0
  0
LINE
  8
0
 62
     0
 10
366.07
 20
31.5888
 30
0.0
 11
367.796
 21
31.5888
 31
0.0
  0
LINE
  8
0
 62
     0
 10
367.796
 20
31.5888
 30
0.0
 11
367.796
 21
37.8587
 31
0.0
  0
LINE
  8
0
 62
     0
 10
367.796
 20
37.8587
 30
0.0
 11
368.621
 21
37.8587
 31
0.0
  0
LINE
  8
0
 62
     0
 10
368.621
 20
37.8587
 30
0.0
 11
368.621
 21
40.6576
 31
0.0
  0
LINE
  8
0
 62
     0
 10
368.621
 20
40.6576
 30
0.0
 11
367.796
 21
40.6576
 31
0.0
  0
LINE
  8
0
 62
     0
 10
367.796
 20
40.6576
 30
0.0
 11
367.796
 21
43.8877
 31
0.0
  0
LINE
  8
0
 62
     0
 10
367.796
 20
43.8877
 30
0.0
 11
366.07
 21
43.8877
 31
0.0
  0
LINE
  8
0
 62
     0
 10
366.07
 20
43.8877
 30
0.0
 11
366.07
 21
44.8084
 31
0.0
  0
LINE
  8
0
 62
     0
 10
366.07
 20
44.8084
 30
0.0
 11
362.768
 21
44.8084
 31
0.0
  0
LINE
  8
0
 62
     0
 10
362.768
 20
44.8084
 30
0.0
 11
362.768
 21
43.8877
 31
0.0
  0
LINE
  8
0
 62
     0
 10
362.768
 20
43.8877
 30
0.0
 11
361.043
 21
43.8877
 31
0.0
  0
LINE
  8
0
 62
     0
 10
361.043
 20
43.8877
 30
0.0
 11
361.043
 21
40.6576
 31
0.0
  0
LINE
  8
0
 62
     0
 10
361.043
 20
40.6576
 30
0.0
 11
359.519
 21
40.6576
 31
0.0
  0
LINE
  8
0
 62
     0
 10
359.519
 20
40.6576
 30
0.0
 11
359.519
 21
45.3581
 31
0.0
  0
LINE
  8
0
 62
     0
 10
359.519
 20
45.3581
 30
0.0
 11
345.52
 21
45.3581
 31
0.0
  0
LINE
  8
0
 62
     0
 10
12.1447
 20
54.8831
 30
0.0
 11
26.1441
 21
54.8831
 31
0.0
  0
LINE
  8
0
 62
     0
 10
26.1441
 20
54.8831
 30
0.0
 11
26.1441
 21
40.8838
 31
0.0
  0
LINE
  8
0
 62
     0
 10
26.1441
 20
40.8838
 30
0.0
 11
12.1447
 21
40.8838
 31
0.0
  0
LINE
  8
0
 62
     0
 10
12.1447
 20
40.8838
 30
0.0
 11
12.1447
 21
54.8831
 31
0.0
  0
LINE
  8
0
 62
     0
 10
31.1947
 20
54.8831
 30
0.0
 11
45.194
 21
54.8831
 31
0.0
  0
LINE
  8
0
 62
     0
 10
45.194
 20
54.8831
 30
0.0
 11
45.194
 21
40.8838
 31
0.0
  0
LINE
  8
0
 62
     0
 10
45.194
 20
40.8838
 30
0.0
 11
31.1947
 21
40.8838
 31
0.0
  0
LINE
  8
0
 62
     0
 10
31.1947
 20
40.8838
 30
0.0
 11
31.1947
 21
54.8831
 31
0.0
  0
LINE
  8
0
 62
     0
 10
50.2447
 20
54.8831
 30
0.0
 11
64.244
 21
54.8831
 31
0.0
  0
LINE
  8
0
 62
     0
 10
64.244
 20
54.8831
 30
0.0
 11
64.244
 21
40.8838
 31
0.0
  0
LINE
  8
0
 62
     0
 10
64.244
 20
40.8838
 30
0.0
 11
50.2447
 21
40.8838
 31
0.0
  0
LINE
  8
0
 62
     0
 10
50.2447
 20
40.8838
 30
0.0
 11
50.2447
 21
54.8831
 31
0.0
  0
LINE
  8
0
 62
     0
 10
69.2947
 20
54.8831
 30
0.0
 11
83.294
 21
54.8831
 31
0.0
  0
LINE
  8
0
 62
     0
 10
83.294
 20
54.8831
 30
0.0
 11
83.294
 21
40.8838
 31
0.0
  0
LINE
  8
0
 62
     0
 10
83.294
 20
40.8838
 30
0.0
 11
69.2947
 21
40.8838
 31
0.0
  0
LINE
  8
0
 62
     0
 10
69.2947
 20
40.8838
 30
0.0
 11
69.2947
 21
54.8831
 31
0.0
  0
LINE
  8
0
 62
     0
 10
88.3447
 20
54.8831
 30
0.0
 11
102.344
 21
54.8831
 31
0.0
  0
LINE
  8
0
 62
     0
 10
102.344
 20
54.8831
 30
0.0
 11
102.344
 21
40.8838
 31
0.0
  0
LINE
  8
0
 62
     0
 10
102.344
 20
40.8838
 30
0.0
 11
88.3447
 21
40.8838
 31
0.0
  0
LINE
  8
0
 62
     0
 10
88.3447
 20
40.8838
 30
0.0
 11
88.3447
 21
54.8831
 31
0.0
  0
LINE
  8
0
 62
     0
 10
107.395
 20
54.8831
 30
0.0
 11
121.394
 21
54.8831
 31
0.0
  0
LINE
  8
0
 62
     0
 10
121.394
 20
54.8831
 30
0.0
 11
121.394
 21
40.8838
 31
0.0
  0
LINE
  8
0
 62
     0
 10
121.394
 20
40.8838
 30
0.0
 11
107.395
 21
40.8838
 31
0.0
  0
LINE
  8
0
 62
     0
 10
107.395
 20
40.8838
 30
0.0
 11
107.395
 21
54.8831
 31
0.0
  0
LINE
  8
0
 62
     0
 10
126.445
 20
54.8831
 30
0.0
 11
140.444
 21
54.8831
 31
0.0
  0
LINE
  8
0
 62
     0
 10
140.444
 20
54.8831
 30
0.0
 11
140.444
 21
40.8838
 31
0.0
  0
LINE
  8
0
 62
     0
 10
140.444
 20
40.8838
 30
0.0
 11
126.445
 21
40.8838
 31
0.0
  0
LINE
  8
0
 62
     0
 10
126.445
 20
40.8838
 30
0.0
 11
126.445
 21
54.8831
 31
0.0
  0
LINE
  8
0
 62
     0
 10
145.495
 20
54.8831
 30
0.0
 11
159.494
 21
54.8831
 31
0.0
  0
LINE
  8
0
 62
     0
 10
159.494
 20
54.8831
 30
0.0
 11
159.494
 21
40.8838
 31
0.0
  0
LINE
  8
0
 62
     0
 10
159.494
 20
40.8838
 30
0.0
 11
145.495
 21
40.8838
 31
0.0
  0
LINE
  8
0
 62
     0
 10
145.495
 20
40.8838
 30
0.0
 11
145.495
 21
54.8831
 31
0.0
  0
LINE
  8
0
 62
     0
 10
164.545
 20
54.8831
 30
0.0
 11
178.544
 21
54.8831
 31
0.0
  0
LINE
  8
0
 62
     0
 10
178.544
 20
54.8831
 30
0.0
 11
178.544
 21
40.8838
 31
0.0
  0
LINE
  8
0
 62
     0
 10
178.544
 20
40.8838
 30
0.0
 11
164.545
 21
40.8838
 31
0.0
  0
LINE
  8
0
 62
     0
 10
164.545
 20
40.8838
 30
0.0
 11
164.545
 21
54.8831
 31
0.0
  0
LINE
  8
0
 62
     0
 10
183.595
 20
54.8831
 30
0.0
 11
197.594
 21
54.8831
 31
0.0
  0
LINE
  8
0
 62
     0
 10
197.594
 20
54.8831
 30
0.0
 11
197.594
 21
40.8838
 31
0.0
  0
LINE
  8
0
 62
     0
 10
197.594
 20
40.8838
 30
0.0
 11
183.595
 21
40.8838
 31
0.0
  0
LINE
  8
0
 62
     0
 10
183.595
 20
40.8838
 30
0.0
 11
183.595
 21
54.8831
 31
0.0
  0
LINE
  8
0
 62
     0
 10
202.645
 20
54.8831
 30
0.0
 11
216.644
 21
54.8831
 31
0.0
  0
LINE
  8
0
 62
     0
 10
216.644
 20
54.8831
 30
0.0
 11
216.644
 21
40.8838
 31
0.0
  0
LINE
  8
0
 62
     0
 10
216.644
 20
40.8838
 30
0.0
 11
202.645
 21
40.8838
 31
0.0
  0
LINE
  8
0
 62
     0
 10
202.645
 20
40.8838
 30
0.0
 11
202.645
 21
54.8831
 31
0.0
  0
LINE
  8
0
 62
     0
 10
221.695
 20
54.8831
 30
0.0
 11
235.694
 21
54.8831
 31
0.0
  0
LINE
  8
0
 62
     0
 10
235.694
 20
54.8831
 30
0.0
 11
235.694
 21
40.8838
 31
0.0
  0
LINE
  8
0
 62
     0
 10
235.694
 20
40.8838
 30
0.0
 11
221.695
 21
40.8838
 31
0.0
  0
LINE
  8
0
 62
     0
 10
221.695
 20
40.8838
 30
0.0
 11
221.695
 21
54.8831
 31
0.0
  0
LINE
  8
0
 62
     0
 10
240.745
 20
54.8831
 30
0.0
 11
254.744
 21
54.8831
 31
0.0
  0
LINE
  8
0
 62
     0
 10
254.744
 20
54.8831
 30
0.0
 11
254.744
 21
40.8838
 31
0.0
  0
LINE
  8
0
 62
     0
 10
254.744
 20
40.8838
 30
0.0
 11
240.745
 21
40.8838
 31
0.0
  0
LINE
  8
0
 62
     0
 10
240.745
 20
40.8838
 30
0.0
 11
240.745
 21
54.8831
 31
0.0
  0
LINE
  8
0
 62
     0
 10
259.795
 20
54.8831
 30
0.0
 11
273.794
 21
54.8831
 31
0.0
  0
LINE
  8
0
 62
     0
 10
273.794
 20
54.8831
 30
0.0
 11
273.794
 21
40.8838
 31
0.0
  0
LINE
  8
0
 62
     0
 10
273.794
 20
40.8838
 30
0.0
 11
259.795
 21
40.8838
 31
0.0
  0
LINE
  8
0
 62
     0
 10
259.795
 20
40.8838
 30
0.0
 11
259.795
 21
54.8831
 31
0.0
  0
LINE
  8
0
 62
     0
 10
326.47
 20
64.4081
 30
0.0
 11
326.47
 21
59.7076
 31
0.0
  0
LINE
  8
0
 62
     0
 10
326.47
 20
59.7076
 30
0.0
 11
324.944
 21
59.7076
 31
0.0
  0
LINE
  8
0
 62
     0
 10
324.944
 20
59.7076
 30
0.0
 11
324.944
 21
62.9377
 31
0.0
  0
LINE
  8
0
 62
     0
 10
324.944
 20
62.9377
 30
0.0
 11
323.219
 21
62.9377
 31
0.0
  0
LINE
  8
0
 62
     0
 10
323.219
 20
62.9377
 30
0.0
 11
323.219
 21
63.8598
 31
0.0
  0
LINE
  8
0
 62
     0
 10
323.219
 20
63.8598
 30
0.0
 11
319.92
 21
63.8598
 31
0.0
  0
LINE
  8
0
 62
     0
 10
319.92
 20
63.8598
 30
0.0
 11
319.92
 21
62.9377
 31
0.0
  0
LINE
  8
0
 62
     0
 10
319.92
 20
62.9377
 30
0.0
 11
318.195
 21
62.9377
 31
0.0
  0
LINE
  8
0
 62
     0
 10
318.195
 20
62.9377
 30
0.0
 11
318.195
 21
59.7076
 31
0.0
  0
LINE
  8
0
 62
     0
 10
318.195
 20
59.7076
 30
0.0
 11
317.369
 21
59.7076
 31
0.0
  0
LINE
  8
0
 62
     0
 10
317.369
 20
59.7076
 30
0.0
 11
317.369
 21
56.9087
 31
0.0
  0
LINE
  8
0
 62
     0
 10
317.369
 20
56.9087
 30
0.0
 11
318.195
 21
56.9087
 31
0.0
  0
LINE
  8
0
 62
     0
 10
318.195
 20
56.9087
 30
0.0
 11
318.195
 21
50.6388
 31
0.0
  0
LINE
  8
0
 62
     0
 10
318.195
 20
50.6388
 30
0.0
 11
319.92
 21
50.6388
 31
0.0
  0
LINE
  8
0
 62
     0
 10
319.92
 20
50.6388
 30
0.0
 11
319.92
 21
49.6577
 31
0.0
  0
LINE
  8
0
 62
     0
 10
319.92
 20
49.6577
 30
0.0
 11
323.219
 21
49.6577
 31
0.0
  0
LINE
  8
0
 62
     0
 10
323.219
 20
49.6577
 30
0.0
 11
323.219
 21
50.6388
 31
0.0
  0
LINE
  8
0
 62
     0
 10
323.219
 20
50.6388
 30
0.0
 11
324.944
 21
50.6388
 31
0.0
  0
LINE
  8
0
 62
     0
 10
324.944
 20
50.6388
 30
0.0
 11
324.944
 21
55.1078
 31
0.0
  0
LINE
  8
0
 62
     0
 10
324.944
 20
55.1078
 30
0.0
 11
326.47
 21
55.1078
 31
0.0
  0
LINE
  8
0
 62
     0
 10
326.47
 20
55.1078
 30
0.0
 11
326.47
 21
50.4088
 31
0.0
  0
LINE
  8
0
 62
     0
 10
326.47
 20
50.4088
 30
0.0
 11
340.469
 21
50.4088
 31
0.0
  0
LINE
  8
0
 62
     0
 10
340.469
 20
50.4088
 30
0.0
 11
340.469
 21
55.1078
 31
0.0
  0
LINE
  8
0
 62
     0
 10
340.469
 20
55.1078
 30
0.0
 11
341.995
 21
55.1078
 31
0.0
  0
LINE
  8
0
 62
     0
 10
341.995
 20
55.1078
 30
0.0
 11
341.995
 21
50.6388
 31
0.0
  0
LINE
  8
0
 62
     0
 10
341.995
 20
50.6388
 30
0.0
 11
343.72
 21
50.6388
 31
0.0
  0
LINE
  8
0
 62
     0
 10
343.72
 20
50.6388
 30
0.0
 11
343.72
 21
49.6577
 31
0.0
  0
LINE
  8
0
 62
     0
 10
343.72
 20
49.6577
 30
0.0
 11
347.019
 21
49.6577
 31
0.0
  0
LINE
  8
0
 62
     0
 10
347.019
 20
49.6577
 30
0.0
 11
347.019
 21
50.6388
 31
0.0
  0
LINE
  8
0
 62
     0
 10
347.019
 20
50.6388
 30
0.0
 11
348.744
 21
50.6388
 31
0.0
  0
LINE
  8
0
 62
     0
 10
348.744
 20
50.6388
 30
0.0
 11
348.744
 21
56.9087
 31
0.0
  0
LINE
  8
0
 62
     0
 10
348.744
 20
56.9087
 30
0.0
 11
349.57
 21
56.9087
 31
0.0
  0
LINE
  8
0
 62
     0
 10
349.57
 20
56.9087
 30
0.0
 11
349.57
 21
59.7076
 31
0.0
  0
LINE
  8
0
 62
     0
 10
349.57
 20
59.7076
 30
0.0
 11
348.744
 21
59.7076
 31
0.0
  0
LINE
  8
0
 62
     0
 10
348.744
 20
59.7076
 30
0.0
 11
348.744
 21
62.9377
 31
0.0
  0
LINE
  8
0
 62
     0
 10
348.744
 20
62.9377
 30
0.0
 11
347.019
 21
62.9377
 31
0.0
  0
LINE
  8
0
 62
     0
 10
347.019
 20
62.9377
 30
0.0
 11
347.019
 21
63.8598
 31
0.0
  0
LINE
  8
0
 62
     0
 10
347.019
 20
63.8598
 30
0.0
 11
343.72
 21
63.8598
 31
0.0
  0
LINE
  8
0
 62
     0
 10
343.72
 20
63.8598
 30
0.0
 11
343.72
 21
62.9377
 31
0.0
  0
LINE
  8
0
 62
     0
 10
343.72
 20
62.9377
 30
0.0
 11
341.995
 21
62.9377
 31
0.0
  0
LINE
  8
0
 62
     0
 10
341.995
 20
62.9377
 30
0.0
 11
341.995
 21
59.7076
 31
0.0
  0
LINE
  8
0
 62
     0
 10
341.995
 20
59.7076
 30
0.0
 11
340.469
 21
59.7076
 31
0.0
  0
LINE
  8
0
 62
     0
 10
340.469
 20
59.7076
 30
0.0
 11
340.469
 21
64.4081
 31
0.0
  0
LINE
  8
0
 62
     0
 10
340.469
 20
64.4081
 30
0.0
 11
326.47
 21
64.4081
 31
0.0
  0
LINE
  8
0
 62
     0
 10
264.557
 20
73.9331
 30
0.0
 11
264.557
 21
69.2326
 31
0.0
  0
LINE
  8
0
 62
     0
 10
264.557
 20
69.2326
 30
0.0
 11
263.032
 21
69.2326
 31
0.0
  0
LINE
  8
0
 62
     0
 10
263.032
 20
69.2326
 30
0.0
 11
263.032
 21
72.4627
 31
0.0
  0
LINE
  8
0
 62
     0
 10
263.032
 20
72.4627
 30
0.0
 11
261.306
 21
72.4627
 31
0.0
  0
LINE
  8
0
 62
     0
 10
261.306
 20
72.4627
 30
0.0
 11
261.306
 21
73.3834
 31
0.0
  0
LINE
  8
0
 62
     0
 10
261.306
 20
73.3834
 30
0.0
 11
258.006
 21
73.3834
 31
0.0
  0
LINE
  8
0
 62
     0
 10
258.006
 20
73.3834
 30
0.0
 11
258.006
 21
72.4627
 31
0.0
  0
LINE
  8
0
 62
     0
 10
258.006
 20
72.4627
 30
0.0
 11
256.282
 21
72.4627
 31
0.0
  0
LINE
  8
0
 62
     0
 10
256.282
 20
72.4627
 30
0.0
 11
256.282
 21
69.2326
 31
0.0
  0
LINE
  8
0
 62
     0
 10
256.282
 20
69.2326
 30
0.0
 11
255.457
 21
69.2326
 31
0.0
  0
LINE
  8
0
 62
     0
 10
255.457
 20
69.2326
 30
0.0
 11
255.457
 21
66.4337
 31
0.0
  0
LINE
  8
0
 62
     0
 10
255.457
 20
66.4337
 30
0.0
 11
256.282
 21
66.4337
 31
0.0
  0
LINE
  8
0
 62
     0
 10
256.282
 20
66.4337
 30
0.0
 11
256.282
 21
60.1638
 31
0.0
  0
LINE
  8
0
 62
     0
 10
256.282
 20
60.1638
 30
0.0
 11
258.006
 21
60.1638
 31
0.0
  0
LINE
  8
0
 62
     0
 10
258.006
 20
60.1638
 30
0.0
 11
258.006
 21
59.1827
 31
0.0
  0
LINE
  8
0
 62
     0
 10
258.006
 20
59.1827
 30
0.0
 11
261.306
 21
59.1827
 31
0.0
  0
LINE
  8
0
 62
     0
 10
261.306
 20
59.1827
 30
0.0
 11
261.306
 21
60.1638
 31
0.0
  0
LINE
  8
0
 62
     0
 10
261.306
 20
60.1638
 30
0.0
 11
263.032
 21
60.1638
 31
0.0
  0
LINE
  8
0
 62
     0
 10
263.032
 20
60.1638
 30
0.0
 11
263.032
 21
64.6328
 31
0.0
  0
LINE
  8
0
 62
     0
 10
263.032
 20
64.6328
 30
0.0
 11
264.557
 21
64.6328
 31
0.0
  0
LINE
  8
0
 62
     0
 10
264.557
 20
64.6328
 30
0.0
 11
264.557
 21
59.9338
 31
0.0
  0
LINE
  8
0
 62
     0
 10
264.557
 20
59.9338
 30
0.0
 11
278.557
 21
59.9338
 31
0.0
  0
LINE
  8
0
 62
     0
 10
278.557
 20
59.9338
 30
0.0
 11
278.557
 21
64.6328
 31
0.0
  0
LINE
  8
0
 62
     0
 10
278.557
 20
64.6328
 30
0.0
 11
280.082
 21
64.6328
 31
0.0
  0
LINE
  8
0
 62
     0
 10
280.082
 20
64.6328
 30
0.0
 11
280.082
 21
60.1638
 31
0.0
  0
LINE
  8
0
 62
     0
 10
280.082
 20
60.1638
 30
0.0
 11
281.806
 21
60.1638
 31
0.0
  0
LINE
  8
0
 62
     0
 10
281.806
 20
60.1638
 30
0.0
 11
281.806
 21
59.1827
 31
0.0
  0
LINE
  8
0
 62
     0
 10
281.806
 20
59.1827
 30
0.0
 11
285.107
 21
59.1827
 31
0.0
  0
LINE
  8
0
 62
     0
 10
285.107
 20
59.1827
 30
0.0
 11
285.107
 21
60.1638
 31
0.0
  0
LINE
  8
0
 62
     0
 10
285.107
 20
60.1638
 30
0.0
 11
286.832
 21
60.1638
 31
0.0
  0
LINE
  8
0
 62
     0
 10
286.832
 20
60.1638
 30
0.0
 11
286.832
 21
66.4337
 31
0.0
  0
LINE
  8
0
 62
     0
 10
286.832
 20
66.4337
 30
0.0
 11
287.656
 21
66.4337
 31
0.0
  0
LINE
  8
0
 62
     0
 10
287.656
 20
66.4337
 30
0.0
 11
287.656
 21
69.2326
 31
0.0
  0
LINE
  8
0
 62
     0
 10
287.656
 20
69.2326
 30
0.0
 11
286.832
 21
69.2326
 31
0.0
  0
LINE
  8
0
 62
     0
 10
286.832
 20
69.2326
 30
0.0
 11
286.832
 21
72.4627
 31
0.0
  0
LINE
  8
0
 62
     0
 10
286.832
 20
72.4627
 30
0.0
 11
285.107
 21
72.4627
 31
0.0
  0
LINE
  8
0
 62
     0
 10
285.107
 20
72.4627
 30
0.0
 11
285.107
 21
73.3834
 31
0.0
  0
LINE
  8
0
 62
     0
 10
285.107
 20
73.3834
 30
0.0
 11
281.806
 21
73.3834
 31
0.0
  0
LINE
  8
0
 62
     0
 10
281.806
 20
73.3834
 30
0.0
 11
281.806
 21
72.4627
 31
0.0
  0
LINE
  8
0
 62
     0
 10
281.806
 20
72.4627
 30
0.0
 11
280.082
 21
72.4627
 31
0.0
  0
LINE
  8
0
 62
     0
 10
280.082
 20
72.4627
 30
0.0
 11
280.082
 21
69.2326
 31
0.0
  0
LINE
  8
0
 62
     0
 10
280.082
 20
69.2326
 30
0.0
 11
278.557
 21
69.2326
 31
0.0
  0
LINE
  8
0
 62
     0
 10
278.557
 20
69.2326
 30
0.0
 11
278.557
 21
73.9331
 31
0.0
  0
LINE
  8
0
 62
     0
 10
278.557
 20
73.9331
 30
0.0
 11
264.557
 21
73.9331
 31
0.0
  0
LINE
  8
0
 62
     0
 10
7.38216
 20
73.9331
 30
0.0
 11
21.3817
 21
73.9331
 31
0.0
  0
LINE
  8
0
 62
     0
 10
21.3817
 20
73.9331
 30
0.0
 11
21.3817
 21
59.9338
 31
0.0
  0
LINE
  8
0
 62
     0
 10
21.3817
 20
59.9338
 30
0.0
 11
7.38216
 21
59.9338
 31
0.0
  0
LINE
  8
0
 62
     0
 10
7.38216
 20
59.9338
 30
0.0
 11
7.38216
 21
73.9331
 31
0.0
  0
LINE
  8
0
 62
     0
 10
26.4322
 20
73.9331
 30
0.0
 11
40.4315
 21
73.9331
 31
0.0
  0
LINE
  8
0
 62
     0
 10
40.4315
 20
73.9331
 30
0.0
 11
40.4315
 21
59.9338
 31
0.0
  0
LINE
  8
0
 62
     0
 10
40.4315
 20
59.9338
 30
0.0
 11
26.4322
 21
59.9338
 31
0.0
  0
LINE
  8
0
 62
     0
 10
26.4322
 20
59.9338
 30
0.0
 11
26.4322
 21
73.9331
 31
0.0
  0
LINE
  8
0
 62
     0
 10
45.4822
 20
73.9331
 30
0.0
 11
59.4815
 21
73.9331
 31
0.0
  0
LINE
  8
0
 62
     0
 10
59.4815
 20
73.9331
 30
0.0
 11
59.4815
 21
59.9338
 31
0.0
  0
LINE
  8
0
 62
     0
 10
59.4815
 20
59.9338
 30
0.0
 11
45.4822
 21
59.9338
 31
0.0
  0
LINE
  8
0
 62
     0
 10
45.4822
 20
59.9338
 30
0.0
 11
45.4822
 21
73.9331
 31
0.0
  0
LINE
  8
0
 62
     0
 10
64.5322
 20
73.9331
 30
0.0
 11
78.5315
 21
73.9331
 31
0.0
  0
LINE
  8
0
 62
     0
 10
78.5315
 20
73.9331
 30
0.0
 11
78.5315
 21
59.9338
 31
0.0
  0
LINE
  8
0
 62
     0
 10
78.5315
 20
59.9338
 30
0.0
 11
64.5322
 21
59.9338
 31
0.0
  0
LINE
  8
0
 62
     0
 10
64.5322
 20
59.9338
 30
0.0
 11
64.5322
 21
73.9331
 31
0.0
  0
LINE
  8
0
 62
     0
 10
83.5822
 20
73.9331
 30
0.0
 11
97.5815
 21
73.9331
 31
0.0
  0
LINE
  8
0
 62
     0
 10
97.5815
 20
73.9331
 30
0.0
 11
97.5815
 21
59.9338
 31
0.0
  0
LINE
  8
0
 62
     0
 10
97.5815
 20
59.9338
 30
0.0
 11
83.5822
 21
59.9338
 31
0.0
  0
LINE
  8
0
 62
     0
 10
83.5822
 20
59.9338
 30
0.0
 11
83.5822
 21
73.9331
 31
0.0
  0
LINE
  8
0
 62
     0
 10
102.632
 20
73.9331
 30
0.0
 11
116.632
 21
73.9331
 31
0.0
  0
LINE
  8
0
 62
     0
 10
116.632
 20
73.9331
 30
0.0
 11
116.632
 21
59.9338
 31
0.0
  0
LINE
  8
0
 62
     0
 10
116.632
 20
59.9338
 30
0.0
 11
102.632
 21
59.9338
 31
0.0
  0
LINE
  8
0
 62
     0
 10
102.632
 20
59.9338
 30
0.0
 11
102.632
 21
73.9331
 31
0.0
  0
LINE
  8
0
 62
     0
 10
121.682
 20
73.9331
 30
0.0
 11
135.682
 21
73.9331
 31
0.0
  0
LINE
  8
0
 62
     0
 10
135.682
 20
73.9331
 30
0.0
 11
135.682
 21
59.9338
 31
0.0
  0
LINE
  8
0
 62
     0
 10
135.682
 20
59.9338
 30
0.0
 11
121.682
 21
59.9338
 31
0.0
  0
LINE
  8
0
 62
     0
 10
121.682
 20
59.9338
 30
0.0
 11
121.682
 21
73.9331
 31
0.0
  0
LINE
  8
0
 62
     0
 10
140.732
 20
73.9331
 30
0.0
 11
154.732
 21
73.9331
 31
0.0
  0
LINE
  8
0
 62
     0
 10
154.732
 20
73.9331
 30
0.0
 11
154.732
 21
59.9338
 31
0.0
  0
LINE
  8
0
 62
     0
 10
154.732
 20
59.9338
 30
0.0
 11
140.732
 21
59.9338
 31
0.0
  0
LINE
  8
0
 62
     0
 10
140.732
 20
59.9338
 30
0.0
 11
140.732
 21
73.9331
 31
0.0
  0
LINE
  8
0
 62
     0
 10
159.782
 20
73.9331
 30
0.0
 11
173.782
 21
73.9331
 31
0.0
  0
LINE
  8
0
 62
     0
 10
173.782
 20
73.9331
 30
0.0
 11
173.782
 21
59.9338
 31
0.0
  0
LINE
  8
0
 62
     0
 10
173.782
 20
59.9338
 30
0.0
 11
159.782
 21
59.9338
 31
0.0
  0
LINE
  8
0
 62
     0
 10
159.782
 20
59.9338
 30
0.0
 11
159.782
 21
73.9331
 31
0.0
  0
LINE
  8
0
 62
     0
 10
178.832
 20
73.9331
 30
0.0
 11
192.832
 21
73.9331
 31
0.0
  0
LINE
  8
0
 62
     0
 10
192.832
 20
73.9331
 30
0.0
 11
192.832
 21
59.9338
 31
0.0
  0
LINE
  8
0
 62
     0
 10
192.832
 20
59.9338
 30
0.0
 11
178.832
 21
59.9338
 31
0.0
  0
LINE
  8
0
 62
     0
 10
178.832
 20
59.9338
 30
0.0
 11
178.832
 21
73.9331
 31
0.0
  0
LINE
  8
0
 62
     0
 10
197.882
 20
73.9331
 30
0.0
 11
211.882
 21
73.9331
 31
0.0
  0
LINE
  8
0
 62
     0
 10
211.882
 20
73.9331
 30
0.0
 11
211.882
 21
59.9338
 31
0.0
  0
LINE
  8
0
 62
     0
 10
211.882
 20
59.9338
 30
0.0
 11
197.882
 21
59.9338
 31
0.0
  0
LINE
  8
0
 62
     0
 10
197.882
 20
59.9338
 30
0.0
 11
197.882
 21
73.9331
 31
0.0
  0
LINE
  8
0
 62
     0
 10
216.932
 20
73.9331
 30
0.0
 11
230.932
 21
73.9331
 31
0.0
  0
LINE
  8
0
 62
     0
 10
230.932
 20
73.9331
 30
0.0
 11
230.932
 21
59.9338
 31
0.0
  0
LINE
  8
0
 62
     0
 10
230.932
 20
59.9338
 30
0.0
 11
216.932
 21
59.9338
 31
0.0
  0
LINE
  8
0
 62
     0
 10
216.932
 20
59.9338
 30
0.0
 11
216.932
 21
73.9331
 31
0.0
  0
LINE
  8
0
 62
     0
 10
235.982
 20
73.9331
 30
0.0
 11
249.982
 21
73.9331
 31
0.0
  0
LINE
  8
0
 62
     0
 10
249.982
 20
73.9331
 30
0.0
 11
249.982
 21
59.9338
 31
0.0
  0
LINE
  8
0
 62
     0
 10
249.982
 20
59.9338
 30
0.0
 11
235.982
 21
59.9338
 31
0.0
  0
LINE
  8
0
 62
     0
 10
235.982
 20
59.9338
 30
0.0
 11
235.982
 21
73.9331
 31
0.0
  0
LINE
  8
0
 62
     0
 10
307.42
 20
83.4581
 30
0.0
 11
321.419
 21
83.4581
 31
0.0
  0
LINE
  8
0
 62
     0
 10
321.419
 20
83.4581
 30
0.0
 11
321.419
 21
69.4588
 31
0.0
  0
LINE
  8
0
 62
     0
 10
321.419
 20
69.4588
 30
0.0
 11
307.42
 21
69.4588
 31
0.0
  0
LINE
  8
0
 62
     0
 10
307.42
 20
69.4588
 30
0.0
 11
307.42
 21
83.4581
 31
0.0
  0
LINE
  8
0
 62
     0
 10
326.47
 20
83.4581
 30
0.0
 11
340.469
 21
83.4581
 31
0.0
  0
LINE
  8
0
 62
     0
 10
340.469
 20
83.4581
 30
0.0
 11
340.469
 21
69.4588
 31
0.0
  0
LINE
  8
0
 62
     0
 10
340.469
 20
69.4588
 30
0.0
 11
326.47
 21
69.4588
 31
0.0
  0
LINE
  8
0
 62
     0
 10
326.47
 20
69.4588
 30
0.0
 11
326.47
 21
83.4581
 31
0.0
  0
LINE
  8
0
 62
     0
 10
345.52
 20
83.4581
 30
0.0
 11
359.519
 21
83.4581
 31
0.0
  0
LINE
  8
0
 62
     0
 10
359.519
 20
83.4581
 30
0.0
 11
359.519
 21
69.4588
 31
0.0
  0
LINE
  8
0
 62
     0
 10
359.519
 20
69.4588
 30
0.0
 11
345.52
 21
69.4588
 31
0.0
  0
LINE
  8
0
 62
     0
 10
345.52
 20
69.4588
 30
0.0
 11
345.52
 21
83.4581
 31
0.0
  0
LINE
  8
0
 62
     0
 10
16.9072
 20
92.9831
 30
0.0
 11
30.9066
 21
92.9831
 31
0.0
  0
LINE
  8
0
 62
     0
 10
30.9066
 20
92.9831
 30
0.0
 11
30.9066
 21
78.9838
 31
0.0
  0
LINE
  8
0
 62
     0
 10
30.9066
 20
78.9838
 30
0.0
 11
16.9072
 21
78.9838
 31
0.0
  0
LINE
  8
0
 62
     0
 10
16.9072
 20
78.9838
 30
0.0
 11
16.9072
 21
92.9831
 31
0.0
  0
LINE
  8
0
 62
     0
 10
35.9572
 20
92.9831
 30
0.0
 11
49.9565
 21
92.9831
 31
0.0
  0
LINE
  8
0
 62
     0
 10
49.9565
 20
92.9831
 30
0.0
 11
49.9565
 21
78.9838
 31
0.0
  0
LINE
  8
0
 62
     0
 10
49.9565
 20
78.9838
 30
0.0
 11
35.9572
 21
78.9838
 31
0.0
  0
LINE
  8
0
 62
     0
 10
35.9572
 20
78.9838
 30
0.0
 11
35.9572
 21
92.9831
 31
0.0
  0
LINE
  8
0
 62
     0
 10
55.0072
 20
92.9831
 30
0.0
 11
69.0065
 21
92.9831
 31
0.0
  0
LINE
  8
0
 62
     0
 10
69.0065
 20
92.9831
 30
0.0
 11
69.0065
 21
78.9838
 31
0.0
  0
LINE
  8
0
 62
     0
 10
69.0065
 20
78.9838
 30
0.0
 11
55.0072
 21
78.9838
 31
0.0
  0
LINE
  8
0
 62
     0
 10
55.0072
 20
78.9838
 30
0.0
 11
55.0072
 21
92.9831
 31
0.0
  0
LINE
  8
0
 62
     0
 10
74.0572
 20
92.9831
 30
0.0
 11
88.0565
 21
92.9831
 31
0.0
  0
LINE
  8
0
 62
     0
 10
88.0565
 20
92.9831
 30
0.0
 11
88.0565
 21
78.9838
 31
0.0
  0
LINE
  8
0
 62
     0
 10
88.0565
 20
78.9838
 30
0.0
 11
74.0572
 21
78.9838
 31
0.0
  0
LINE
  8
0
 62
     0
 10
74.0572
 20
78.9838
 30
0.0
 11
74.0572
 21
92.9831
 31
0.0
  0
LINE
  8
0
 62
     0
 10
93.1072
 20
92.9831
 30
0.0
 11
107.107
 21
92.9831
 31
0.0
  0
LINE
  8
0
 62
     0
 10
107.107
 20
92.9831
 30
0.0
 11
107.107
 21
78.9838
 31
0.0
  0
LINE
  8
0
 62
     0
 10
107.107
 20
78.9838
 30
0.0
 11
93.1072
 21
78.9838
 31
0.0
  0
LINE
  8
0
 62
     0
 10
93.1072
 20
78.9838
 30
0.0
 11
93.1072
 21
92.9831
 31
0.0
  0
LINE
  8
0
 62
     0
 10
112.157
 20
92.9831
 30
0.0
 11
126.157
 21
92.9831
 31
0.0
  0
LINE
  8
0
 62
     0
 10
126.157
 20
92.9831
 30
0.0
 11
126.157
 21
78.9838
 31
0.0
  0
LINE
  8
0
 62
     0
 10
126.157
 20
78.9838
 30
0.0
 11
112.157
 21
78.9838
 31
0.0
  0
LINE
  8
0
 62
     0
 10
112.157
 20
78.9838
 30
0.0
 11
112.157
 21
92.9831
 31
0.0
  0
LINE
  8
0
 62
     0
 10
131.207
 20
92.9831
 30
0.0
 11
145.207
 21
92.9831
 31
0.0
  0
LINE
  8
0
 62
     0
 10
145.207
 20
92.9831
 30
0.0
 11
145.207
 21
78.9838
 31
0.0
  0
LINE
  8
0
 62
     0
 10
145.207
 20
78.9838
 30
0.0
 11
131.207
 21
78.9838
 31
0.0
  0
LINE
  8
0
 62
     0
 10
131.207
 20
78.9838
 30
0.0
 11
131.207
 21
92.9831
 31
0.0
  0
LINE
  8
0
 62
     0
 10
150.257
 20
92.9831
 30
0.0
 11
164.257
 21
92.9831
 31
0.0
  0
LINE
  8
0
 62
     0
 10
164.257
 20
92.9831
 30
0.0
 11
164.257
 21
78.9838
 31
0.0
  0
LINE
  8
0
 62
     0
 10
164.257
 20
78.9838
 30
0.0
 11
150.257
 21
78.9838
 31
0.0
  0
LINE
  8
0
 62
     0
 10
150.257
 20
78.9838
 30
0.0
 11
150.257
 21
92.9831
 31
0.0
  0
LINE
  8
0
 62
     0
 10
169.307
 20
92.9831
 30
0.0
 11
183.307
 21
92.9831
 31
0.0
  0
LINE
  8
0
 62
     0
 10
183.307
 20
92.9831
 30
0.0
 11
183.307
 21
78.9838
 31
0.0
  0
LINE
  8
0
 62
     0
 10
183.307
 20
78.9838
 30
0.0
 11
169.307
 21
78.9838
 31
0.0
  0
LINE
  8
0
 62
     0
 10
169.307
 20
78.9838
 30
0.0
 11
169.307
 21
92.9831
 31
0.0
  0
LINE
  8
0
 62
     0
 10
188.357
 20
92.9831
 30
0.0
 11
202.357
 21
92.9831
 31
0.0
  0
LINE
  8
0
 62
     0
 10
202.357
 20
92.9831
 30
0.0
 11
202.357
 21
78.9838
 31
0.0
  0
LINE
  8
0
 62
     0
 10
202.357
 20
78.9838
 30
0.0
 11
188.357
 21
78.9838
 31
0.0
  0
LINE
  8
0
 62
     0
 10
188.357
 20
78.9838
 30
0.0
 11
188.357
 21
92.9831
 31
0.0
  0
LINE
  8
0
 62
     0
 10
207.407
 20
92.9831
 30
0.0
 11
221.407
 21
92.9831
 31
0.0
  0
LINE
  8
0
 62
     0
 10
221.407
 20
92.9831
 30
0.0
 11
221.407
 21
78.9838
 31
0.0
  0
LINE
  8
0
 62
     0
 10
221.407
 20
78.9838
 30
0.0
 11
207.407
 21
78.9838
 31
0.0
  0
LINE
  8
0
 62
     0
 10
207.407
 20
78.9838
 30
0.0
 11
207.407
 21
92.9831
 31
0.0
  0
LINE
  8
0
 62
     0
 10
226.457
 20
92.9831
 30
0.0
 11
240.457
 21
92.9831
 31
0.0
  0
LINE
  8
0
 62
     0
 10
240.457
 20
92.9831
 30
0.0
 11
240.457
 21
78.9838
 31
0.0
  0
LINE
  8
0
 62
     0
 10
240.457
 20
78.9838
 30
0.0
 11
226.457
 21
78.9838
 31
0.0
  0
LINE
  8
0
 62
     0
 10
226.457
 20
78.9838
 30
0.0
 11
226.457
 21
92.9831
 31
0.0
  0
LINE
  8
0
 62
     0
 10
245.507
 20
92.9831
 30
0.0
 11
259.507
 21
92.9831
 31
0.0
  0
LINE
  8
0
 62
     0
 10
259.507
 20
92.9831
 30
0.0
 11
259.507
 21
78.9838
 31
0.0
  0
LINE
  8
0
 62
     0
 10
259.507
 20
78.9838
 30
0.0
 11
245.507
 21
78.9838
 31
0.0
  0
LINE
  8
0
 62
     0
 10
245.507
 20
78.9838
 30
0.0
 11
245.507
 21
92.9831
 31
0.0
  0
LINE
  8
0
 62
     0
 10
264.557
 20
92.9831
 30
0.0
 11
278.557
 21
92.9831
 31
0.0
  0
LINE
  8
0
 62
     0
 10
278.557
 20
92.9831
 30
0.0
 11
278.557
 21
78.9838
 31
0.0
  0
LINE
  8
0
 62
     0
 10
278.557
 20
78.9838
 30
0.0
 11
264.557
 21
78.9838
 31
0.0
  0
LINE
  8
0
 62
     0
 10
264.557
 20
78.9838
 30
0.0
 11
264.557
 21
92.9831
 31
0.0
  0
LINE
  8
0
 62
     0
 10
16.9072
 20
112.033
 30
0.0
 11
16.9072
 21
107.333
 31
0.0
  0
LINE
  8
0
 62
     0
 10
16.9072
 20
107.333
 30
0.0
 11
15.3817
 21
107.333
 31
0.0
  0
LINE
  8
0
 62
     0
 10
15.3817
 20
107.333
 30
0.0
 11
15.3817
 21
110.563
 31
0.0
  0
LINE
  8
0
 62
     0
 10
15.3817
 20
110.563
 30
0.0
 11
13.6563
 21
110.563
 31
0.0
  0
LINE
  8
0
 62
     0
 10
13.6563
 20
110.563
 30
0.0
 11
13.6563
 21
111.485
 31
0.0
  0
LINE
  8
0
 62
     0
 10
13.6563
 20
111.485
 30
0.0
 11
10.356
 21
111.485
 31
0.0
  0
LINE
  8
0
 62
     0
 10
10.356
 20
111.485
 30
0.0
 11
10.356
 21
110.563
 31
0.0
  0
LINE
  8
0
 62
     0
 10
10.356
 20
110.563
 30
0.0
 11
8.63205
 21
110.563
 31
0.0
  0
LINE
  8
0
 62
     0
 10
8.63205
 20
110.563
 30
0.0
 11
8.63205
 21
107.333
 31
0.0
  0
LINE
  8
0
 62
     0
 10
8.63205
 20
107.333
 30
0.0
 11
7.80658
 21
107.333
 31
0.0
  0
LINE
  8
0
 62
     0
 10
7.80658
 20
107.333
 30
0.0
 11
7.80658
 21
104.534
 31
0.0
  0
LINE
  8
0
 62
     0
 10
7.80658
 20
104.534
 30
0.0
 11
8.63205
 21
104.534
 31
0.0
  0
LINE
  8
0
 62
     0
 10
8.63205
 20
104.534
 30
0.0
 11
8.63205
 21
98.2638
 31
0.0
  0
LINE
  8
0
 62
     0
 10
8.63205
 20
98.2638
 30
0.0
 11
10.356
 21
98.2638
 31
0.0
  0
LINE
  8
0
 62
     0
 10
10.356
 20
98.2638
 30
0.0
 11
10.356
 21
97.2827
 31
0.0
  0
LINE
  8
0
 62
     0
 10
10.356
 20
97.2827
 30
0.0
 11
13.6563
 21
97.2827
 31
0.0
  0
LINE
  8
0
 62
     0
 10
13.6563
 20
97.2827
 30
0.0
 11
13.6563
 21
98.2638
 31
0.0
  0
LINE
  8
0
 62
     0
 10
13.6563
 20
98.2638
 30
0.0
 11
15.3817
 21
98.2638
 31
0.0
  0
LINE
  8
0
 62
     0
 10
15.3817
 20
98.2638
 30
0.0
 11
15.3817
 21
102.733
 31
0.0
  0
LINE
  8
0
 62
     0
 10
15.3817
 20
102.733
 30
0.0
 11
16.9072
 21
102.733
 31
0.0
  0
LINE
  8
0
 62
     0
 10
16.9072
 20
102.733
 30
0.0
 11
16.9072
 21
98.0338
 31
0.0
  0
LINE
  8
0
 62
     0
 10
16.9072
 20
98.0338
 30
0.0
 11
30.9066
 21
98.0338
 31
0.0
  0
LINE
  8
0
 62
     0
 10
30.9066
 20
98.0338
 30
0.0
 11
30.9066
 21
102.733
 31
0.0
  0
LINE
  8
0
 62
     0
 10
30.9066
 20
102.733
 30
0.0
 11
32.4321
 21
102.733
 31
0.0
  0
LINE
  8
0
 62
     0
 10
32.4321
 20
102.733
 30
0.0
 11
32.4321
 21
98.2638
 31
0.0
  0
LINE
  8
0
 62
     0
 10
32.4321
 20
98.2638
 30
0.0
 11
34.156
 21
98.2638
 31
0.0
  0
LINE
  8
0
 62
     0
 10
34.156
 20
98.2638
 30
0.0
 11
34.156
 21
97.2827
 31
0.0
  0
LINE
  8
0
 62
     0
 10
34.156
 20
97.2827
 30
0.0
 11
37.4565
 21
97.2827
 31
0.0
  0
LINE
  8
0
 62
     0
 10
37.4565
 20
97.2827
 30
0.0
 11
37.4565
 21
98.2638
 31
0.0
  0
LINE
  8
0
 62
     0
 10
37.4565
 20
98.2638
 30
0.0
 11
39.1816
 21
98.2638
 31
0.0
  0
LINE
  8
0
 62
     0
 10
39.1816
 20
98.2638
 30
0.0
 11
39.1816
 21
104.534
 31
0.0
  0
LINE
  8
0
 62
     0
 10
39.1816
 20
104.534
 30
0.0
 11
40.0057
 21
104.534
 31
0.0
  0
LINE
  8
0
 62
     0
 10
40.0057
 20
104.534
 30
0.0
 11
40.0057
 21
107.333
 31
0.0
  0
LINE
  8
0
 62
     0
 10
40.0057
 20
107.333
 30
0.0
 11
39.1816
 21
107.333
 31
0.0
  0
LINE
  8
0
 62
     0
 10
39.1816
 20
107.333
 30
0.0
 11
39.1816
 21
110.563
 31
0.0
  0
LINE
  8
0
 62
     0
 10
39.1816
 20
110.563
 30
0.0
 11
37.4565
 21
110.563
 31
0.0
  0
LINE
  8
0
 62
     0
 10
37.4565
 20
110.563
 30
0.0
 11
37.4565
 21
111.485
 31
0.0
  0
LINE
  8
0
 62
     0
 10
37.4565
 20
111.485
 30
0.0
 11
34.156
 21
111.485
 31
0.0
  0
LINE
  8
0
 62
     0
 10
34.156
 20
111.485
 30
0.0
 11
34.156
 21
110.563
 31
0.0
  0
LINE
  8
0
 62
     0
 10
34.156
 20
110.563
 30
0.0
 11
32.4321
 21
110.563
 31
0.0
  0
LINE
  8
0
 62
     0
 10
32.4321
 20
110.563
 30
0.0
 11
32.4321
 21
107.333
 31
0.0
  0
LINE
  8
0
 62
     0
 10
32.4321
 20
107.333
 30
0.0
 11
30.9066
 21
107.333
 31
0.0
  0
LINE
  8
0
 62
     0
 10
30.9066
 20
107.333
 30
0.0
 11
30.9066
 21
112.033
 31
0.0
  0
LINE
  8
0
 62
     0
 10
30.9066
 20
112.033
 30
0.0
 11
16.9072
 21
112.033
 31
0.0
  0
LINE
  8
0
 62
     0
 10
55.0072
 20
112.033
 30
0.0
 11
55.0072
 21
107.333
 31
0.0
  0
LINE
  8
0
 62
     0
 10
55.0072
 20
107.333
 30
0.0
 11
53.4818
 21
107.333
 31
0.0
  0
LINE
  8
0
 62
     0
 10
53.4818
 20
107.333
 30
0.0
 11
53.4818
 21
110.563
 31
0.0
  0
LINE
  8
0
 62
     0
 10
53.4818
 20
110.563
 30
0.0
 11
51.7564
 21
110.563
 31
0.0
  0
LINE
  8
0
 62
     0
 10
51.7564
 20
110.563
 30
0.0
 11
51.7564
 21
111.485
 31
0.0
  0
LINE
  8
0
 62
     0
 10
51.7564
 20
111.485
 30
0.0
 11
48.4558
 21
111.485
 31
0.0
  0
LINE
  8
0
 62
     0
 10
48.4558
 20
111.485
 30
0.0
 11
48.4558
 21
110.563
 31
0.0
  0
LINE
  8
0
 62
     0
 10
48.4558
 20
110.563
 30
0.0
 11
46.7321
 21
110.563
 31
0.0
  0
LINE
  8
0
 62
     0
 10
46.7321
 20
110.563
 30
0.0
 11
46.7321
 21
107.333
 31
0.0
  0
LINE
  8
0
 62
     0
 10
46.7321
 20
107.333
 30
0.0
 11
45.9066
 21
107.333
 31
0.0
  0
LINE
  8
0
 62
     0
 10
45.9066
 20
107.333
 30
0.0
 11
45.9066
 21
104.534
 31
0.0
  0
LINE
  8
0
 62
     0
 10
45.9066
 20
104.534
 30
0.0
 11
46.7321
 21
104.534
 31
0.0
  0
LINE
  8
0
 62
     0
 10
46.7321
 20
104.534
 30
0.0
 11
46.7321
 21
98.2638
 31
0.0
  0
LINE
  8
0
 62
     0
 10
46.7321
 20
98.2638
 30
0.0
 11
48.4558
 21
98.2638
 31
0.0
  0
LINE
  8
0
 62
     0
 10
48.4558
 20
98.2638
 30
0.0
 11
48.4558
 21
97.2827
 31
0.0
  0
LINE
  8
0
 62
     0
 10
48.4558
 20
97.2827
 30
0.0
 11
51.7564
 21
97.2827
 31
0.0
  0
LINE
  8
0
 62
     0
 10
51.7564
 20
97.2827
 30
0.0
 11
51.7564
 21
98.2638
 31
0.0
  0
LINE
  8
0
 62
     0
 10
51.7564
 20
98.2638
 30
0.0
 11
53.4818
 21
98.2638
 31
0.0
  0
LINE
  8
0
 62
     0
 10
53.4818
 20
98.2638
 30
0.0
 11
53.4818
 21
102.733
 31
0.0
  0
LINE
  8
0
 62
     0
 10
53.4818
 20
102.733
 30
0.0
 11
55.0072
 21
102.733
 31
0.0
  0
LINE
  8
0
 62
     0
 10
55.0072
 20
102.733
 30
0.0
 11
55.0072
 21
98.0338
 31
0.0
  0
LINE
  8
0
 62
     0
 10
55.0072
 20
98.0338
 30
0.0
 11
69.0065
 21
98.0338
 31
0.0
  0
LINE
  8
0
 62
     0
 10
69.0065
 20
98.0338
 30
0.0
 11
69.0065
 21
102.733
 31
0.0
  0
LINE
  8
0
 62
     0
 10
69.0065
 20
102.733
 30
0.0
 11
70.5323
 21
102.733
 31
0.0
  0
LINE
  8
0
 62
     0
 10
70.5323
 20
102.733
 30
0.0
 11
70.5323
 21
98.2638
 31
0.0
  0
LINE
  8
0
 62
     0
 10
70.5323
 20
98.2638
 30
0.0
 11
72.2559
 21
98.2638
 31
0.0
  0
LINE
  8
0
 62
     0
 10
72.2559
 20
98.2638
 30
0.0
 11
72.2559
 21
97.2827
 31
0.0
  0
LINE
  8
0
 62
     0
 10
72.2559
 20
97.2827
 30
0.0
 11
75.5565
 21
97.2827
 31
0.0
  0
LINE
  8
0
 62
     0
 10
75.5565
 20
97.2827
 30
0.0
 11
75.5565
 21
98.2638
 31
0.0
  0
LINE
  8
0
 62
     0
 10
75.5565
 20
98.2638
 30
0.0
 11
77.2816
 21
98.2638
 31
0.0
  0
LINE
  8
0
 62
     0
 10
77.2816
 20
98.2638
 30
0.0
 11
77.2816
 21
104.534
 31
0.0
  0
LINE
  8
0
 62
     0
 10
77.2816
 20
104.534
 30
0.0
 11
78.1057
 21
104.534
 31
0.0
  0
LINE
  8
0
 62
     0
 10
78.1057
 20
104.534
 30
0.0
 11
78.1057
 21
107.333
 31
0.0
  0
LINE
  8
0
 62
     0
 10
78.1057
 20
107.333
 30
0.0
 11
77.2816
 21
107.333
 31
0.0
  0
LINE
  8
0
 62
     0
 10
77.2816
 20
107.333
 30
0.0
 11
77.2816
 21
110.563
 31
0.0
  0
LINE
  8
0
 62
     0
 10
77.2816
 20
110.563
 30
0.0
 11
75.5565
 21
110.563
 31
0.0
  0
LINE
  8
0
 62
     0
 10
75.5565
 20
110.563
 30
0.0
 11
75.5565
 21
111.485
 31
0.0
  0
LINE
  8
0
 62
     0
 10
75.5565
 20
111.485
 30
0.0
 11
72.2559
 21
111.485
 31
0.0
  0
LINE
  8
0
 62
     0
 10
72.2559
 20
111.485
 30
0.0
 11
72.2559
 21
110.563
 31
0.0
  0
LINE
  8
0
 62
     0
 10
72.2559
 20
110.563
 30
0.0
 11
70.5323
 21
110.563
 31
0.0
  0
LINE
  8
0
 62
     0
 10
70.5323
 20
110.563
 30
0.0
 11
70.5323
 21
107.333
 31
0.0
  0
LINE
  8
0
 62
     0
 10
70.5323
 20
107.333
 30
0.0
 11
69.0065
 21
107.333
 31
0.0
  0
LINE
  8
0
 62
     0
 10
69.0065
 20
107.333
 30
0.0
 11
69.0065
 21
112.033
 31
0.0
  0
LINE
  8
0
 62
     0
 10
69.0065
 20
112.033
 30
0.0
 11
55.0072
 21
112.033
 31
0.0
  0
LINE
  8
0
 62
     0
 10
93.1072
 20
112.033
 30
0.0
 11
93.1072
 21
107.333
 31
0.0
  0
LINE
  8
0
 62
     0
 10
93.1072
 20
107.333
 30
0.0
 11
91.5818
 21
107.333
 31
0.0
  0
LINE
  8
0
 62
     0
 10
91.5818
 20
107.333
 30
0.0
 11
91.5818
 21
110.563
 31
0.0
  0
LINE
  8
0
 62
     0
 10
91.5818
 20
110.563
 30
0.0
 11
89.8564
 21
110.563
 31
0.0
  0
LINE
  8
0
 62
     0
 10
89.8564
 20
110.563
 30
0.0
 11
89.8564
 21
111.485
 31
0.0
  0
LINE
  8
0
 62
     0
 10
89.8564
 20
111.485
 30
0.0
 11
86.5558
 21
111.485
 31
0.0
  0
LINE
  8
0
 62
     0
 10
86.5558
 20
111.485
 30
0.0
 11
86.5558
 21
110.563
 31
0.0
  0
LINE
  8
0
 62
     0
 10
86.5558
 20
110.563
 30
0.0
 11
84.8321
 21
110.563
 31
0.0
  0
LINE
  8
0
 62
     0
 10
84.8321
 20
110.563
 30
0.0
 11
84.8321
 21
107.333
 31
0.0
  0
LINE
  8
0
 62
     0
 10
84.8321
 20
107.333
 30
0.0
 11
84.0066
 21
107.333
 31
0.0
  0
LINE
  8
0
 62
     0
 10
84.0066
 20
107.333
 30
0.0
 11
84.0066
 21
104.534
 31
0.0
  0
LINE
  8
0
 62
     0
 10
84.0066
 20
104.534
 30
0.0
 11
84.8321
 21
104.534
 31
0.0
  0
LINE
  8
0
 62
     0
 10
84.8321
 20
104.534
 30
0.0
 11
84.8321
 21
98.2638
 31
0.0
  0
LINE
  8
0
 62
     0
 10
84.8321
 20
98.2638
 30
0.0
 11
86.5558
 21
98.2638
 31
0.0
  0
LINE
  8
0
 62
     0
 10
86.5558
 20
98.2638
 30
0.0
 11
86.5558
 21
97.2827
 31
0.0
  0
LINE
  8
0
 62
     0
 10
86.5558
 20
97.2827
 30
0.0
 11
89.8564
 21
97.2827
 31
0.0
  0
LINE
  8
0
 62
     0
 10
89.8564
 20
97.2827
 30
0.0
 11
89.8564
 21
98.2638
 31
0.0
  0
LINE
  8
0
 62
     0
 10
89.8564
 20
98.2638
 30
0.0
 11
91.5818
 21
98.2638
 31
0.0
  0
LINE
  8
0
 62
     0
 10
91.5818
 20
98.2638
 30
0.0
 11
91.5818
 21
102.733
 31
0.0
  0
LINE
  8
0
 62
     0
 10
91.5818
 20
102.733
 30
0.0
 11
93.1072
 21
102.733
 31
0.0
  0
LINE
  8
0
 62
     0
 10
93.1072
 20
102.733
 30
0.0
 11
93.1072
 21
98.0338
 31
0.0
  0
LINE
  8
0
 62
     0
 10
93.1072
 20
98.0338
 30
0.0
 11
107.107
 21
98.0338
 31
0.0
  0
LINE
  8
0
 62
     0
 10
107.107
 20
98.0338
 30
0.0
 11
107.107
 21
102.733
 31
0.0
  0
LINE
  8
0
 62
     0
 10
107.107
 20
102.733
 30
0.0
 11
108.632
 21
102.733
 31
0.0
  0
LINE
  8
0
 62
     0
 10
108.632
 20
102.733
 30
0.0
 11
108.632
 21
98.2638
 31
0.0
  0
LINE
  8
0
 62
     0
 10
108.632
 20
98.2638
 30
0.0
 11
110.356
 21
98.2638
 31
0.0
  0
LINE
  8
0
 62
     0
 10
110.356
 20
98.2638
 30
0.0
 11
110.356
 21
97.2827
 31
0.0
  0
LINE
  8
0
 62
     0
 10
110.356
 20
97.2827
 30
0.0
 11
113.657
 21
97.2827
 31
0.0
  0
LINE
  8
0
 62
     0
 10
113.657
 20
97.2827
 30
0.0
 11
113.657
 21
98.2638
 31
0.0
  0
LINE
  8
0
 62
     0
 10
113.657
 20
98.2638
 30
0.0
 11
115.382
 21
98.2638
 31
0.0
  0
LINE
  8
0
 62
     0
 10
115.382
 20
98.2638
 30
0.0
 11
115.382
 21
104.534
 31
0.0
  0
LINE
  8
0
 62
     0
 10
115.382
 20
104.534
 30
0.0
 11
116.206
 21
104.534
 31
0.0
  0
LINE
  8
0
 62
     0
 10
116.206
 20
104.534
 30
0.0
 11
116.206
 21
107.333
 31
0.0
  0
LINE
  8
0
 62
     0
 10
116.206
 20
107.333
 30
0.0
 11
115.382
 21
107.333
 31
0.0
  0
LINE
  8
0
 62
     0
 10
115.382
 20
107.333
 30
0.0
 11
115.382
 21
110.563
 31
0.0
  0
LINE
  8
0
 62
     0
 10
115.382
 20
110.563
 30
0.0
 11
113.657
 21
110.563
 31
0.0
  0
LINE
  8
0
 62
     0
 10
113.657
 20
110.563
 30
0.0
 11
113.657
 21
111.485
 31
0.0
  0
LINE
  8
0
 62
     0
 10
113.657
 20
111.485
 30
0.0
 11
110.356
 21
111.485
 31
0.0
  0
LINE
  8
0
 62
     0
 10
110.356
 20
111.485
 30
0.0
 11
110.356
 21
110.563
 31
0.0
  0
LINE
  8
0
 62
     0
 10
110.356
 20
110.563
 30
0.0
 11
108.632
 21
110.563
 31
0.0
  0
LINE
  8
0
 62
     0
 10
108.632
 20
110.563
 30
0.0
 11
108.632
 21
107.333
 31
0.0
  0
LINE
  8
0
 62
     0
 10
108.632
 20
107.333
 30
0.0
 11
107.107
 21
107.333
 31
0.0
  0
LINE
  8
0
 62
     0
 10
107.107
 20
107.333
 30
0.0
 11
107.107
 21
112.033
 31
0.0
  0
LINE
  8
0
 62
     0
 10
107.107
 20
112.033
 30
0.0
 11
93.1072
 21
112.033
 31
0.0
  0
LINE
  8
0
 62
     0
 10
131.207
 20
112.033
 30
0.0
 11
131.207
 21
107.333
 31
0.0
  0
LINE
  8
0
 62
     0
 10
131.207
 20
107.333
 30
0.0
 11
129.682
 21
107.333
 31
0.0
  0
LINE
  8
0
 62
     0
 10
129.682
 20
107.333
 30
0.0
 11
129.682
 21
110.563
 31
0.0
  0
LINE
  8
0
 62
     0
 10
129.682
 20
110.563
 30
0.0
 11
127.956
 21
110.563
 31
0.0
  0
LINE
  8
0
 62
     0
 10
127.956
 20
110.563
 30
0.0
 11
127.956
 21
111.485
 31
0.0
  0
LINE
  8
0
 62
     0
 10
127.956
 20
111.485
 30
0.0
 11
124.656
 21
111.485
 31
0.0
  0
LINE
  8
0
 62
     0
 10
124.656
 20
111.485
 30
0.0
 11
124.656
 21
110.563
 31
0.0
  0
LINE
  8
0
 62
     0
 10
124.656
 20
110.563
 30
0.0
 11
122.932
 21
110.563
 31
0.0
  0
LINE
  8
0
 62
     0
 10
122.932
 20
110.563
 30
0.0
 11
122.932
 21
107.333
 31
0.0
  0
LINE
  8
0
 62
     0
 10
122.932
 20
107.333
 30
0.0
 11
122.107
 21
107.333
 31
0.0
  0
LINE
  8
0
 62
     0
 10
122.107
 20
107.333
 30
0.0
 11
122.107
 21
104.534
 31
0.0
  0
LINE
  8
0
 62
     0
 10
122.107
 20
104.534
 30
0.0
 11
122.932
 21
104.534
 31
0.0
  0
LINE
  8
0
 62
     0
 10
122.932
 20
104.534
 30
0.0
 11
122.932
 21
98.2638
 31
0.0
  0
LINE
  8
0
 62
     0
 10
122.932
 20
98.2638
 30
0.0
 11
124.656
 21
98.2638
 31
0.0
  0
LINE
  8
0
 62
     0
 10
124.656
 20
98.2638
 30
0.0
 11
124.656
 21
97.2827
 31
0.0
  0
LINE
  8
0
 62
     0
 10
124.656
 20
97.2827
 30
0.0
 11
127.956
 21
97.2827
 31
0.0
  0
LINE
  8
0
 62
     0
 10
127.956
 20
97.2827
 30
0.0
 11
127.956
 21
98.2638
 31
0.0
  0
LINE
  8
0
 62
     0
 10
127.956
 20
98.2638
 30
0.0
 11
129.682
 21
98.2638
 31
0.0
  0
LINE
  8
0
 62
     0
 10
129.682
 20
98.2638
 30
0.0
 11
129.682
 21
102.733
 31
0.0
  0
LINE
  8
0
 62
     0
 10
129.682
 20
102.733
 30
0.0
 11
131.207
 21
102.733
 31
0.0
  0
LINE
  8
0
 62
     0
 10
131.207
 20
102.733
 30
0.0
 11
131.207
 21
98.0338
 31
0.0
  0
LINE
  8
0
 62
     0
 10
131.207
 20
98.0338
 30
0.0
 11
145.207
 21
98.0338
 31
0.0
  0
LINE
  8
0
 62
     0
 10
145.207
 20
98.0338
 30
0.0
 11
145.207
 21
102.733
 31
0.0
  0
LINE
  8
0
 62
     0
 10
145.207
 20
102.733
 30
0.0
 11
146.732
 21
102.733
 31
0.0
  0
LINE
  8
0
 62
     0
 10
146.732
 20
102.733
 30
0.0
 11
146.732
 21
98.2638
 31
0.0
  0
LINE
  8
0
 62
     0
 10
146.732
 20
98.2638
 30
0.0
 11
148.456
 21
98.2638
 31
0.0
  0
LINE
  8
0
 62
     0
 10
148.456
 20
98.2638
 30
0.0
 11
148.456
 21
97.2827
 31
0.0
  0
LINE
  8
0
 62
     0
 10
148.456
 20
97.2827
 30
0.0
 11
151.757
 21
97.2827
 31
0.0
  0
LINE
  8
0
 62
     0
 10
151.757
 20
97.2827
 30
0.0
 11
151.757
 21
98.2638
 31
0.0
  0
LINE
  8
0
 62
     0
 10
151.757
 20
98.2638
 30
0.0
 11
153.482
 21
98.2638
 31
0.0
  0
LINE
  8
0
 62
     0
 10
153.482
 20
98.2638
 30
0.0
 11
153.482
 21
104.534
 31
0.0
  0
LINE
  8
0
 62
     0
 10
153.482
 20
104.534
 30
0.0
 11
154.306
 21
104.534
 31
0.0
  0
LINE
  8
0
 62
     0
 10
154.306
 20
104.534
 30
0.0
 11
154.306
 21
107.333
 31
0.0
  0
LINE
  8
0
 62
     0
 10
154.306
 20
107.333
 30
0.0
 11
153.482
 21
107.333
 31
0.0
  0
LINE
  8
0
 62
     0
 10
153.482
 20
107.333
 30
0.0
 11
153.482
 21
110.563
 31
0.0
  0
LINE
  8
0
 62
     0
 10
153.482
 20
110.563
 30
0.0
 11
151.757
 21
110.563
 31
0.0
  0
LINE
  8
0
 62
     0
 10
151.757
 20
110.563
 30
0.0
 11
151.757
 21
111.485
 31
0.0
  0
LINE
  8
0
 62
     0
 10
151.757
 20
111.485
 30
0.0
 11
148.456
 21
111.485
 31
0.0
  0
LINE
  8
0
 62
     0
 10
148.456
 20
111.485
 30
0.0
 11
148.456
 21
110.563
 31
0.0
  0
LINE
  8
0
 62
     0
 10
148.456
 20
110.563
 30
0.0
 11
146.732
 21
110.563
 31
0.0
  0
LINE
  8
0
 62
     0
 10
146.732
 20
110.563
 30
0.0
 11
146.732
 21
107.333
 31
0.0
  0
LINE
  8
0
 62
     0
 10
146.732
 20
107.333
 30
0.0
 11
145.207
 21
107.333
 31
0.0
  0
LINE
  8
0
 62
     0
 10
145.207
 20
107.333
 30
0.0
 11
145.207
 21
112.033
 31
0.0
  0
LINE
  8
0
 62
     0
 10
145.207
 20
112.033
 30
0.0
 11
131.207
 21
112.033
 31
0.0
  0
LINE
  8
0
 62
     0
 10
169.307
 20
112.033
 30
0.0
 11
169.307
 21
107.333
 31
0.0
  0
LINE
  8
0
 62
     0
 10
169.307
 20
107.333
 30
0.0
 11
167.782
 21
107.333
 31
0.0
  0
LINE
  8
0
 62
     0
 10
167.782
 20
107.333
 30
0.0
 11
167.782
 21
110.563
 31
0.0
  0
LINE
  8
0
 62
     0
 10
167.782
 20
110.563
 30
0.0
 11
166.056
 21
110.563
 31
0.0
  0
LINE
  8
0
 62
     0
 10
166.056
 20
110.563
 30
0.0
 11
166.056
 21
111.485
 31
0.0
  0
LINE
  8
0
 62
     0
 10
166.056
 20
111.485
 30
0.0
 11
162.756
 21
111.485
 31
0.0
  0
LINE
  8
0
 62
     0
 10
162.756
 20
111.485
 30
0.0
 11
162.756
 21
110.563
 31
0.0
  0
LINE
  8
0
 62
     0
 10
162.756
 20
110.563
 30
0.0
 11
161.032
 21
110.563
 31
0.0
  0
LINE
  8
0
 62
     0
 10
161.032
 20
110.563
 30
0.0
 11
161.032
 21
107.333
 31
0.0
  0
LINE
  8
0
 62
     0
 10
161.032
 20
107.333
 30
0.0
 11
160.207
 21
107.333
 31
0.0
  0
LINE
  8
0
 62
     0
 10
160.207
 20
107.333
 30
0.0
 11
160.207
 21
104.534
 31
0.0
  0
LINE
  8
0
 62
     0
 10
160.207
 20
104.534
 30
0.0
 11
161.032
 21
104.534
 31
0.0
  0
LINE
  8
0
 62
     0
 10
161.032
 20
104.534
 30
0.0
 11
161.032
 21
98.2638
 31
0.0
  0
LINE
  8
0
 62
     0
 10
161.032
 20
98.2638
 30
0.0
 11
162.756
 21
98.2638
 31
0.0
  0
LINE
  8
0
 62
     0
 10
162.756
 20
98.2638
 30
0.0
 11
162.756
 21
97.2827
 31
0.0
  0
LINE
  8
0
 62
     0
 10
162.756
 20
97.2827
 30
0.0
 11
166.056
 21
97.2827
 31
0.0
  0
LINE
  8
0
 62
     0
 10
166.056
 20
97.2827
 30
0.0
 11
166.056
 21
98.2638
 31
0.0
  0
LINE
  8
0
 62
     0
 10
166.056
 20
98.2638
 30
0.0
 11
167.782
 21
98.2638
 31
0.0
  0
LINE
  8
0
 62
     0
 10
167.782
 20
98.2638
 30
0.0
 11
167.782
 21
102.733
 31
0.0
  0
LINE
  8
0
 62
     0
 10
167.782
 20
102.733
 30
0.0
 11
169.307
 21
102.733
 31
0.0
  0
LINE
  8
0
 62
     0
 10
169.307
 20
102.733
 30
0.0
 11
169.307
 21
98.0338
 31
0.0
  0
LINE
  8
0
 62
     0
 10
169.307
 20
98.0338
 30
0.0
 11
183.307
 21
98.0338
 31
0.0
  0
LINE
  8
0
 62
     0
 10
183.307
 20
98.0338
 30
0.0
 11
183.307
 21
102.733
 31
0.0
  0
LINE
  8
0
 62
     0
 10
183.307
 20
102.733
 30
0.0
 11
184.832
 21
102.733
 31
0.0
  0
LINE
  8
0
 62
     0
 10
184.832
 20
102.733
 30
0.0
 11
184.832
 21
98.2638
 31
0.0
  0
LINE
  8
0
 62
     0
 10
184.832
 20
98.2638
 30
0.0
 11
186.556
 21
98.2638
 31
0.0
  0
LINE
  8
0
 62
     0
 10
186.556
 20
98.2638
 30
0.0
 11
186.556
 21
97.2827
 31
0.0
  0
LINE
  8
0
 62
     0
 10
186.556
 20
97.2827
 30
0.0
 11
189.857
 21
97.2827
 31
0.0
  0
LINE
  8
0
 62
     0
 10
189.857
 20
97.2827
 30
0.0
 11
189.857
 21
98.2638
 31
0.0
  0
LINE
  8
0
 62
     0
 10
189.857
 20
98.2638
 30
0.0
 11
191.582
 21
98.2638
 31
0.0
  0
LINE
  8
0
 62
     0
 10
191.582
 20
98.2638
 30
0.0
 11
191.582
 21
104.534
 31
0.0
  0
LINE
  8
0
 62
     0
 10
191.582
 20
104.534
 30
0.0
 11
192.406
 21
104.534
 31
0.0
  0
LINE
  8
0
 62
     0
 10
192.406
 20
104.534
 30
0.0
 11
192.406
 21
107.333
 31
0.0
  0
LINE
  8
0
 62
     0
 10
192.406
 20
107.333
 30
0.0
 11
191.582
 21
107.333
 31
0.0
  0
LINE
  8
0
 62
     0
 10
191.582
 20
107.333
 30
0.0
 11
191.582
 21
110.563
 31
0.0
  0
LINE
  8
0
 62
     0
 10
191.582
 20
110.563
 30
0.0
 11
189.857
 21
110.563
 31
0.0
  0
LINE
  8
0
 62
     0
 10
189.857
 20
110.563
 30
0.0
 11
189.857
 21
111.485
 31
0.0
  0
LINE
  8
0
 62
     0
 10
189.857
 20
111.485
 30
0.0
 11
186.556
 21
111.485
 31
0.0
  0
LINE
  8
0
 62
     0
 10
186.556
 20
111.485
 30
0.0
 11
186.556
 21
110.563
 31
0.0
  0
LINE
  8
0
 62
     0
 10
186.556
 20
110.563
 30
0.0
 11
184.832
 21
110.563
 31
0.0
  0
LINE
  8
0
 62
     0
 10
184.832
 20
110.563
 30
0.0
 11
184.832
 21
107.333
 31
0.0
  0
LINE
  8
0
 62
     0
 10
184.832
 20
107.333
 30
0.0
 11
183.307
 21
107.333
 31
0.0
  0
LINE
  8
0
 62
     0
 10
183.307
 20
107.333
 30
0.0
 11
183.307
 21
112.033
 31
0.0
  0
LINE
  8
0
 62
     0
 10
183.307
 20
112.033
 30
0.0
 11
169.307
 21
112.033
 31
0.0
  0
LINE
  8
0
 62
     0
 10
207.407
 20
112.033
 30
0.0
 11
207.407
 21
107.333
 31
0.0
  0
LINE
  8
0
 62
     0
 10
207.407
 20
107.333
 30
0.0
 11
205.882
 21
107.333
 31
0.0
  0
LINE
  8
0
 62
     0
 10
205.882
 20
107.333
 30
0.0
 11
205.882
 21
110.563
 31
0.0
  0
LINE
  8
0
 62
     0
 10
205.882
 20
110.563
 30
0.0
 11
204.156
 21
110.563
 31
0.0
  0
LINE
  8
0
 62
     0
 10
204.156
 20
110.563
 30
0.0
 11
204.156
 21
111.485
 31
0.0
  0
LINE
  8
0
 62
     0
 10
204.156
 20
111.485
 30
0.0
 11
200.856
 21
111.485
 31
0.0
  0
LINE
  8
0
 62
     0
 10
200.856
 20
111.485
 30
0.0
 11
200.856
 21
110.563
 31
0.0
  0
LINE
  8
0
 62
     0
 10
200.856
 20
110.563
 30
0.0
 11
199.132
 21
110.563
 31
0.0
  0
LINE
  8
0
 62
     0
 10
199.132
 20
110.563
 30
0.0
 11
199.132
 21
107.333
 31
0.0
  0
LINE
  8
0
 62
     0
 10
199.132
 20
107.333
 30
0.0
 11
198.307
 21
107.333
 31
0.0
  0
LINE
  8
0
 62
     0
 10
198.307
 20
107.333
 30
0.0
 11
198.307
 21
104.534
 31
0.0
  0
LINE
  8
0
 62
     0
 10
198.307
 20
104.534
 30
0.0
 11
199.132
 21
104.534
 31
0.0
  0
LINE
  8
0
 62
     0
 10
199.132
 20
104.534
 30
0.0
 11
199.132
 21
98.2638
 31
0.0
  0
LINE
  8
0
 62
     0
 10
199.132
 20
98.2638
 30
0.0
 11
200.856
 21
98.2638
 31
0.0
  0
LINE
  8
0
 62
     0
 10
200.856
 20
98.2638
 30
0.0
 11
200.856
 21
97.2827
 31
0.0
  0
LINE
  8
0
 62
     0
 10
200.856
 20
97.2827
 30
0.0
 11
204.156
 21
97.2827
 31
0.0
  0
LINE
  8
0
 62
     0
 10
204.156
 20
97.2827
 30
0.0
 11
204.156
 21
98.2638
 31
0.0
  0
LINE
  8
0
 62
     0
 10
204.156
 20
98.2638
 30
0.0
 11
205.882
 21
98.2638
 31
0.0
  0
LINE
  8
0
 62
     0
 10
205.882
 20
98.2638
 30
0.0
 11
205.882
 21
102.733
 31
0.0
  0
LINE
  8
0
 62
     0
 10
205.882
 20
102.733
 30
0.0
 11
207.407
 21
102.733
 31
0.0
  0
LINE
  8
0
 62
     0
 10
207.407
 20
102.733
 30
0.0
 11
207.407
 21
98.0338
 31
0.0
  0
LINE
  8
0
 62
     0
 10
207.407
 20
98.0338
 30
0.0
 11
221.407
 21
98.0338
 31
0.0
  0
LINE
  8
0
 62
     0
 10
221.407
 20
98.0338
 30
0.0
 11
221.407
 21
102.733
 31
0.0
  0
LINE
  8
0
 62
     0
 10
221.407
 20
102.733
 30
0.0
 11
222.932
 21
102.733
 31
0.0
  0
LINE
  8
0
 62
     0
 10
222.932
 20
102.733
 30
0.0
 11
222.932
 21
98.2638
 31
0.0
  0
LINE
  8
0
 62
     0
 10
222.932
 20
98.2638
 30
0.0
 11
224.656
 21
98.2638
 31
0.0
  0
LINE
  8
0
 62
     0
 10
224.656
 20
98.2638
 30
0.0
 11
224.656
 21
97.2827
 31
0.0
  0
LINE
  8
0
 62
     0
 10
224.656
 20
97.2827
 30
0.0
 11
227.957
 21
97.2827
 31
0.0
  0
LINE
  8
0
 62
     0
 10
227.957
 20
97.2827
 30
0.0
 11
227.957
 21
98.2638
 31
0.0
  0
LINE
  8
0
 62
     0
 10
227.957
 20
98.2638
 30
0.0
 11
229.682
 21
98.2638
 31
0.0
  0
LINE
  8
0
 62
     0
 10
229.682
 20
98.2638
 30
0.0
 11
229.682
 21
104.534
 31
0.0
  0
LINE
  8
0
 62
     0
 10
229.682
 20
104.534
 30
0.0
 11
230.506
 21
104.534
 31
0.0
  0
LINE
  8
0
 62
     0
 10
230.506
 20
104.534
 30
0.0
 11
230.506
 21
107.333
 31
0.0
  0
LINE
  8
0
 62
     0
 10
230.506
 20
107.333
 30
0.0
 11
229.682
 21
107.333
 31
0.0
  0
LINE
  8
0
 62
     0
 10
229.682
 20
107.333
 30
0.0
 11
229.682
 21
110.563
 31
0.0
  0
LINE
  8
0
 62
     0
 10
229.682
 20
110.563
 30
0.0
 11
227.957
 21
110.563
 31
0.0
  0
LINE
  8
0
 62
     0
 10
227.957
 20
110.563
 30
0.0
 11
227.957
 21
111.485
 31
0.0
  0
LINE
  8
0
 62
     0
 10
227.957
 20
111.485
 30
0.0
 11
224.656
 21
111.485
 31
0.0
  0
LINE
  8
0
 62
     0
 10
224.656
 20
111.485
 30
0.0
 11
224.656
 21
110.563
 31
0.0
  0
LINE
  8
0
 62
     0
 10
224.656
 20
110.563
 30
0.0
 11
222.932
 21
110.563
 31
0.0
  0
LINE
  8
0
 62
     0
 10
222.932
 20
110.563
 30
0.0
 11
222.932
 21
107.333
 31
0.0
  0
LINE
  8
0
 62
     0
 10
222.932
 20
107.333
 30
0.0
 11
221.407
 21
107.333
 31
0.0
  0
LINE
  8
0
 62
     0
 10
221.407
 20
107.333
 30
0.0
 11
221.407
 21
112.033
 31
0.0
  0
LINE
  8
0
 62
     0
 10
221.407
 20
112.033
 30
0.0
 11
207.407
 21
112.033
 31
0.0
  0
LINE
  8
0
 62
     0
 10
245.507
 20
112.033
 30
0.0
 11
245.507
 21
107.333
 31
0.0
  0
LINE
  8
0
 62
     0
 10
245.507
 20
107.333
 30
0.0
 11
243.982
 21
107.333
 31
0.0
  0
LINE
  8
0
 62
     0
 10
243.982
 20
107.333
 30
0.0
 11
243.982
 21
110.563
 31
0.0
  0
LINE
  8
0
 62
     0
 10
243.982
 20
110.563
 30
0.0
 11
242.256
 21
110.563
 31
0.0
  0
LINE
  8
0
 62
     0
 10
242.256
 20
110.563
 30
0.0
 11
242.256
 21
111.485
 31
0.0
  0
LINE
  8
0
 62
     0
 10
242.256
 20
111.485
 30
0.0
 11
238.956
 21
111.485
 31
0.0
  0
LINE
  8
0
 62
     0
 10
238.956
 20
111.485
 30
0.0
 11
238.956
 21
110.563
 31
0.0
  0
LINE
  8
0
 62
     0
 10
238.956
 20
110.563
 30
0.0
 11
237.232
 21
110.563
 31
0.0
  0
LINE
  8
0
 62
     0
 10
237.232
 20
110.563
 30
0.0
 11
237.232
 21
107.333
 31
0.0
  0
LINE
  8
0
 62
     0
 10
237.232
 20
107.333
 30
0.0
 11
236.407
 21
107.333
 31
0.0
  0
LINE
  8
0
 62
     0
 10
236.407
 20
107.333
 30
0.0
 11
236.407
 21
104.534
 31
0.0
  0
LINE
  8
0
 62
     0
 10
236.407
 20
104.534
 30
0.0
 11
237.232
 21
104.534
 31
0.0
  0
LINE
  8
0
 62
     0
 10
237.232
 20
104.534
 30
0.0
 11
237.232
 21
98.2638
 31
0.0
  0
LINE
  8
0
 62
     0
 10
237.232
 20
98.2638
 30
0.0
 11
238.956
 21
98.2638
 31
0.0
  0
LINE
  8
0
 62
     0
 10
238.956
 20
98.2638
 30
0.0
 11
238.956
 21
97.2827
 31
0.0
  0
LINE
  8
0
 62
     0
 10
238.956
 20
97.2827
 30
0.0
 11
242.256
 21
97.2827
 31
0.0
  0
LINE
  8
0
 62
     0
 10
242.256
 20
97.2827
 30
0.0
 11
242.256
 21
98.2638
 31
0.0
  0
LINE
  8
0
 62
     0
 10
242.256
 20
98.2638
 30
0.0
 11
243.982
 21
98.2638
 31
0.0
  0
LINE
  8
0
 62
     0
 10
243.982
 20
98.2638
 30
0.0
 11
243.982
 21
102.733
 31
0.0
  0
LINE
  8
0
 62
     0
 10
243.982
 20
102.733
 30
0.0
 11
245.507
 21
102.733
 31
0.0
  0
LINE
  8
0
 62
     0
 10
245.507
 20
102.733
 30
0.0
 11
245.507
 21
98.0338
 31
0.0
  0
LINE
  8
0
 62
     0
 10
245.507
 20
98.0338
 30
0.0
 11
259.507
 21
98.0338
 31
0.0
  0
LINE
  8
0
 62
     0
 10
259.507
 20
98.0338
 30
0.0
 11
259.507
 21
102.733
 31
0.0
  0
LINE
  8
0
 62
     0
 10
259.507
 20
102.733
 30
0.0
 11
261.032
 21
102.733
 31
0.0
  0
LINE
  8
0
 62
     0
 10
261.032
 20
102.733
 30
0.0
 11
261.032
 21
98.2638
 31
0.0
  0
LINE
  8
0
 62
     0
 10
261.032
 20
98.2638
 30
0.0
 11
262.756
 21
98.2638
 31
0.0
  0
LINE
  8
0
 62
     0
 10
262.756
 20
98.2638
 30
0.0
 11
262.756
 21
97.2827
 31
0.0
  0
LINE
  8
0
 62
     0
 10
262.756
 20
97.2827
 30
0.0
 11
266.057
 21
97.2827
 31
0.0
  0
LINE
  8
0
 62
     0
 10
266.057
 20
97.2827
 30
0.0
 11
266.057
 21
98.2638
 31
0.0
  0
LINE
  8
0
 62
     0
 10
266.057
 20
98.2638
 30
0.0
 11
267.782
 21
98.2638
 31
0.0
  0
LINE
  8
0
 62
     0
 10
267.782
 20
98.2638
 30
0.0
 11
267.782
 21
104.534
 31
0.0
  0
LINE
  8
0
 62
     0
 10
267.782
 20
104.534
 30
0.0
 11
268.606
 21
104.534
 31
0.0
  0
LINE
  8
0
 62
     0
 10
268.606
 20
104.534
 30
0.0
 11
268.606
 21
107.333
 31
0.0
  0
LINE
  8
0
 62
     0
 10
268.606
 20
107.333
 30
0.0
 11
267.782
 21
107.333
 31
0.0
  0
LINE
  8
0
 62
     0
 10
267.782
 20
107.333
 30
0.0
 11
267.782
 21
110.563
 31
0.0
  0
LINE
  8
0
 62
     0
 10
267.782
 20
110.563
 30
0.0
 11
266.057
 21
110.563
 31
0.0
  0
LINE
  8
0
 62
     0
 10
266.057
 20
110.563
 30
0.0
 11
266.057
 21
111.485
 31
0.0
  0
LINE
  8
0
 62
     0
 10
266.057
 20
111.485
 30
0.0
 11
262.756
 21
111.485
 31
0.0
  0
LINE
  8
0
 62
     0
 10
262.756
 20
111.485
 30
0.0
 11
262.756
 21
110.563
 31
0.0
  0
LINE
  8
0
 62
     0
 10
262.756
 20
110.563
 30
0.0
 11
261.032
 21
110.563
 31
0.0
  0
LINE
  8
0
 62
     0
 10
261.032
 20
110.563
 30
0.0
 11
261.032
 21
107.333
 31
0.0
  0
LINE
  8
0
 62
     0
 10
261.032
 20
107.333
 30
0.0
 11
259.507
 21
107.333
 31
0.0
  0
LINE
  8
0
 62
     0
 10
259.507
 20
107.333
 30
0.0
 11
259.507
 21
112.033
 31
0.0
  0
LINE
  8
0
 62
     0
 10
259.507
 20
112.033
 30
0.0
 11
245.507
 21
112.033
 31
0.0
  0
LINE
  8
0
 62
     0
 10
283.607
 20
112.033
 30
0.0
 11
283.607
 21
107.333
 31
0.0
  0
LINE
  8
0
 62
     0
 10
283.607
 20
107.333
 30
0.0
 11
282.082
 21
107.333
 31
0.0
  0
LINE
  8
0
 62
     0
 10
282.082
 20
107.333
 30
0.0
 11
282.082
 21
110.563
 31
0.0
  0
LINE
  8
0
 62
     0
 10
282.082
 20
110.563
 30
0.0
 11
280.356
 21
110.563
 31
0.0
  0
LINE
  8
0
 62
     0
 10
280.356
 20
110.563
 30
0.0
 11
280.356
 21
111.485
 31
0.0
  0
LINE
  8
0
 62
     0
 10
280.356
 20
111.485
 30
0.0
 11
277.056
 21
111.485
 31
0.0
  0
LINE
  8
0
 62
     0
 10
277.056
 20
111.485
 30
0.0
 11
277.056
 21
110.563
 31
0.0
  0
LINE
  8
0
 62
     0
 10
277.056
 20
110.563
 30
0.0
 11
275.332
 21
110.563
 31
0.0
  0
LINE
  8
0
 62
     0
 10
275.332
 20
110.563
 30
0.0
 11
275.332
 21
107.333
 31
0.0
  0
LINE
  8
0
 62
     0
 10
275.332
 20
107.333
 30
0.0
 11
274.507
 21
107.333
 31
0.0
  0
LINE
  8
0
 62
     0
 10
274.507
 20
107.333
 30
0.0
 11
274.507
 21
104.534
 31
0.0
  0
LINE
  8
0
 62
     0
 10
274.507
 20
104.534
 30
0.0
 11
275.332
 21
104.534
 31
0.0
  0
LINE
  8
0
 62
     0
 10
275.332
 20
104.534
 30
0.0
 11
275.332
 21
98.2638
 31
0.0
  0
LINE
  8
0
 62
     0
 10
275.332
 20
98.2638
 30
0.0
 11
277.056
 21
98.2638
 31
0.0
  0
LINE
  8
0
 62
     0
 10
277.056
 20
98.2638
 30
0.0
 11
277.056
 21
97.2827
 31
0.0
  0
LINE
  8
0
 62
     0
 10
277.056
 20
97.2827
 30
0.0
 11
280.356
 21
97.2827
 31
0.0
  0
LINE
  8
0
 62
     0
 10
280.356
 20
97.2827
 30
0.0
 11
280.356
 21
98.2638
 31
0.0
  0
LINE
  8
0
 62
     0
 10
280.356
 20
98.2638
 30
0.0
 11
282.082
 21
98.2638
 31
0.0
  0
LINE
  8
0
 62
     0
 10
282.082
 20
98.2638
 30
0.0
 11
282.082
 21
102.733
 31
0.0
  0
LINE
  8
0
 62
     0
 10
282.082
 20
102.733
 30
0.0
 11
283.607
 21
102.733
 31
0.0
  0
LINE
  8
0
 62
     0
 10
283.607
 20
102.733
 30
0.0
 11
283.607
 21
98.0338
 31
0.0
  0
LINE
  8
0
 62
     0
 10
283.607
 20
98.0338
 30
0.0
 11
297.607
 21
98.0338
 31
0.0
  0
LINE
  8
0
 62
     0
 10
297.607
 20
98.0338
 30
0.0
 11
297.607
 21
102.733
 31
0.0
  0
LINE
  8
0
 62
     0
 10
297.607
 20
102.733
 30
0.0
 11
299.132
 21
102.733
 31
0.0
  0
LINE
  8
0
 62
     0
 10
299.132
 20
102.733
 30
0.0
 11
299.132
 21
98.2638
 31
0.0
  0
LINE
  8
0
 62
     0
 10
299.132
 20
98.2638
 30
0.0
 11
300.856
 21
98.2638
 31
0.0
  0
LINE
  8
0
 62
     0
 10
300.856
 20
98.2638
 30
0.0
 11
300.856
 21
97.2827
 31
0.0
  0
LINE
  8
0
 62
     0
 10
300.856
 20
97.2827
 30
0.0
 11
304.157
 21
97.2827
 31
0.0
  0
LINE
  8
0
 62
     0
 10
304.157
 20
97.2827
 30
0.0
 11
304.157
 21
98.2638
 31
0.0
  0
LINE
  8
0
 62
     0
 10
304.157
 20
98.2638
 30
0.0
 11
305.882
 21
98.2638
 31
0.0
  0
LINE
  8
0
 62
     0
 10
305.882
 20
98.2638
 30
0.0
 11
305.882
 21
104.534
 31
0.0
  0
LINE
  8
0
 62
     0
 10
305.882
 20
104.534
 30
0.0
 11
306.706
 21
104.534
 31
0.0
  0
LINE
  8
0
 62
     0
 10
306.706
 20
104.534
 30
0.0
 11
306.706
 21
107.333
 31
0.0
  0
LINE
  8
0
 62
     0
 10
306.706
 20
107.333
 30
0.0
 11
305.882
 21
107.333
 31
0.0
  0
LINE
  8
0
 62
     0
 10
305.882
 20
107.333
 30
0.0
 11
305.882
 21
110.563
 31
0.0
  0
LINE
  8
0
 62
     0
 10
305.882
 20
110.563
 30
0.0
 11
304.157
 21
110.563
 31
0.0
  0
LINE
  8
0
 62
     0
 10
304.157
 20
110.563
 30
0.0
 11
304.157
 21
111.485
 31
0.0
  0
LINE
  8
0
 62
     0
 10
304.157
 20
111.485
 30
0.0
 11
300.856
 21
111.485
 31
0.0
  0
LINE
  8
0
 62
     0
 10
300.856
 20
111.485
 30
0.0
 11
300.856
 21
110.563
 31
0.0
  0
LINE
  8
0
 62
     0
 10
300.856
 20
110.563
 30
0.0
 11
299.132
 21
110.563
 31
0.0
  0
LINE
  8
0
 62
     0
 10
299.132
 20
110.563
 30
0.0
 11
299.132
 21
107.333
 31
0.0
  0
LINE
  8
0
 62
     0
 10
299.132
 20
107.333
 30
0.0
 11
297.607
 21
107.333
 31
0.0
  0
LINE
  8
0
 62
     0
 10
297.607
 20
107.333
 30
0.0
 11
297.607
 21
112.033
 31
0.0
  0
LINE
  8
0
 62
     0
 10
297.607
 20
112.033
 30
0.0
 11
283.607
 21
112.033
 31
0.0
  0
ENDSEC
  0
EOF
